<?xml version="1.0" standalone="no"?>
<!DOCTYPE svg PUBLIC "-//W3C//DTD SVG 1.1//EN" "http://www.w3.org/Graphics/SVG/1.1/DTD/svg11.dtd" >
<svg xmlns="http://www.w3.org/2000/svg">
<metadata>Generated by IcoMoon</metadata>
<defs>
<font id="icomoon" horiz-adv-x="1024">
<font-face units-per-em="1024" ascent="960" descent="-64" />
<missing-glyph horiz-adv-x="1024" />
<glyph unicode="&#x20;" horiz-adv-x="512" d="" />
<glyph unicode="&#xe900;" d="M3.66 82.605c0-78.894 63.847-142.945 142.742-142.945h730.993c78.894 0 142.945 63.847 142.945 142.945v730.79c0 78.894-64.051 142.945-142.945 142.945h-730.79c-78.894 0-142.945-63.847-142.945-142.945v-730.79z" />
<glyph unicode="&#xe901;" d="M877.395-64h-730.993c-80.724 0-146.402 65.678-146.402 146.605v730.79c0 80.928 65.678 146.605 146.605 146.605h730.79c80.928 0 146.605-65.678 146.605-146.605v-730.79c0-80.928-65.678-146.605-146.605-146.605zM146.605 952.68c-76.861 0-139.285-62.424-139.285-139.285v-730.79c0-76.861 62.424-139.285 139.082-139.285h730.993c76.861 0 139.285 62.424 139.285 139.285v730.79c0 76.861-62.424 139.285-139.285 139.285h-730.79z" />
<glyph unicode="&#xe902;" d="M163.075 908.759h698.052c61.611 0 111.631-50.021 111.631-111.631v-698.052c0-61.611-50.021-111.631-111.631-111.631h-698.052c-61.611 0-111.631 50.021-111.631 111.631v697.849c-0.203 61.814 49.817 111.835 111.631 111.835z" />
<glyph unicode="&#xe903;" d="M526.64 666.993c32.33 0 58.561 28.264 58.561 63.034s-26.23 62.831-58.561 62.831-58.561-28.264-58.561-62.831 26.23-63.034 58.561-63.034z" />
<glyph unicode="&#xe904;" d="M608.788 566.952l200.083 207.606-1.22 1.83c-19.114 19.114-66.288 9.15-82.961-7.32l-119.562-119.562-351.975 0.203c-30.907 0-60.391-28.264-60.391-55.714h251.323l1.017-151.079h162.872zM480.483 294.685c0 29.28 19.52 53.071 43.717 53.071s43.717-23.79 43.717-53.071-19.52-53.274-43.717-53.274-43.717 23.994-43.717 53.274z" />
<glyph unicode="&#xe905;" d="M743.396 337.995c0 29.28 19.52 53.274 43.717 53.274s43.717-23.79 43.717-53.274-19.52-53.274-43.717-53.274-43.717 23.79-43.717 53.274zM217.366 337.995c0 29.28 19.724 53.274 43.717 53.274s43.717-23.79 43.717-53.274-19.52-53.274-43.717-53.274-43.717 23.79-43.717 53.274zM719.606 117.376v89.671h9.963v-89.671h112.038v88.044h10.167v-88.044h44.531v82.961c0 39.244-31.924 71.168-71.168 71.168h-76.861c-39.244 0-71.168-31.72-71.371-70.964v-83.164zM456.489 74.065v89.671h9.963v-89.671h112.241v88.044h10.167v-88.044h44.531v82.961c0 39.244-31.924 71.168-71.168 71.168h-77.064c-39.244 0-71.168-31.72-71.371-70.964v-83.164zM193.576 117.376v89.671h9.963v-89.671h112.038v88.044h10.167v-88.044h44.531v82.961c0 39.244-31.924 71.168-71.168 71.168h-76.861c-39.244 0-71.168-31.924-71.168-71.168v-82.961z" />
<glyph unicode="&#xe906;" d="M3.66 82.605c0-78.894 63.847-142.945 142.742-142.945h730.993c78.894 0 142.945 63.847 142.945 142.945v730.79c0 78.894-64.051 142.945-142.945 142.945h-730.79c-78.894 0-142.945-63.847-142.945-142.945v-730.79z" />
<glyph unicode="&#xe907;" d="M877.395-64h-730.993c-80.724 0-146.402 65.678-146.402 146.605v730.79c0 80.928 65.678 146.605 146.605 146.605h730.79c80.928 0 146.605-65.678 146.605-146.605v-730.79c0-80.928-65.678-146.605-146.605-146.605zM146.605 952.68c-76.861 0-139.285-62.424-139.285-139.285v-730.79c0-76.861 62.424-139.285 139.082-139.285h730.993c76.861 0 139.285 62.424 139.285 139.285v730.79c0 76.861-62.424 139.285-139.285 139.285h-730.79z" />
<glyph unicode="&#xe908;" d="M51.241 82.605c0-52.664 42.497-95.161 95.161-95.365h730.993c52.664 0 95.365 42.701 95.365 95.161v730.993c0 52.664-42.701 95.365-95.365 95.365h-730.79c-52.664 0-95.365-42.701-95.365-95.161v-730.993zM468.486 818.885c0.407-0.61-19.927-104.515-25.62-116.512-10.573-21.554-27.857-34.567-52.257-38.837-8.133-18.3-61.001-289.144-60.797-289.55 1.017-5.693 4.067-10.777 8.54-14.234 2.44-2.033 13.42-5.083 32.534-9.353l16.674-3.66c10.573-2.237 19.317-8.743 25.824-19.724 3.863-6.303 5.897-10.98 6.507-14.234 0.61-3.66-26.637-133.388-28.264-138.878-29.28 19.724-76.861 14.234-105.125-11.183-22.164 7.117-38.024 10.37-47.377 9.557-17.080-1.423-37.82-10.167-62.017-26.027-25.214-16.47-40.667-24.604-46.361-24.4 1.22 16.47 14.844 83.774 40.667 201.506 8.133 37.007 16.267 62.831 67.914 53.884 17.284-3.050 28.67-4.677 33.957-4.677 4.88 3.253 9.15 7.523 11.997 12.607 3.253 6.1 60.594 283.654 58.561 285.484l-16.267 14.437c-17.284 15.454-22.367 41.277-15.047 77.268 9.76 48.597 16.267 76.861 19.317 84.588l136.642-28.060zM373.732 700.34c28.467-5.287 44.327 23.587 47.377 87.028-19.927 6.303-40.261 10.37-61.001 12.403-12.2-44.531-15.454-71.981-9.76-82.148 4.677-9.15 13.42-15.657 23.384-17.284zM440.426 542.145h451.609c6.1 0-4.27-133.795-130.948-192.356-92.721-42.904-216.146-16.47-280.807 78.081-26.027 37.617-39.244 75.641-39.854 114.275zM460.556 405.503l1.22-0.61 11.59-13.217c37.414-42.904 87.231-70.558 149.655-83.164 83.164-16.674 183.206 10.777 241.97 87.841l-59.781-347.908-284.67 1.017-59.984 356.041z" />
<glyph unicode="&#xe909;" d="M3.66 82.605c0-78.894 63.847-142.945 142.742-142.945h730.993c78.894 0 142.945 63.847 142.945 142.945v730.79c0 78.894-64.051 142.945-142.945 142.945h-730.79c-78.894 0-142.945-63.847-142.945-142.945v-730.79z" />
<glyph unicode="&#xe90a;" d="M877.395-64h-730.993c-80.724 0-146.402 65.678-146.402 146.605v730.79c0 80.928 65.678 146.605 146.605 146.605h730.79c80.928 0 146.605-65.678 146.605-146.605v-730.79c0-80.928-65.678-146.605-146.605-146.605zM146.605 952.68c-76.861 0-139.285-62.424-139.285-139.285v-730.79c0-76.861 62.424-139.285 139.082-139.285h730.993c76.861 0 139.285 62.424 139.285 139.285v730.79c0 76.861-62.424 139.285-139.285 139.285h-730.79z" />
<glyph unicode="&#xe90b;" d="M51.241 98.059c0-61.611 50.021-111.835 111.631-111.835h698.052c61.611 0 111.631 50.224 111.631 111.835v699.679c0 61.611-50.021 111.835-111.631 111.835h-697.849c-61.611 0-111.631-50.224-111.631-111.835l-0.203-699.679z" />
<glyph unicode="&#xe90c;" d="M422.125 438.85c-2.237-4.27-4.88-8.54-7.523-12.607-33.347-44.531-79.504-43.921-114.885 5.287-18.91 26.23-42.091 34.567-71.168 36.194-26.84 1.423-53.071 5.287-75.234 23.587-21.147 17.284-33.144 55.714-25.214 82.351 8.743 29.687 31.11 46.361 62.424 50.224 17.080 2.237 33.55 7.93 50.224 12.2 21.757 5.49 43.107 13.217 65.271 16.47 38.227 5.897 67.711-11.59 82.961-46.564 5.49-13.014 8.947-26.84 13.42-40.057 6.913-19.317 12.81-39.041 21.147-57.747 12.403-27.247 13.217-41.684-1.423-69.338zM163.279 694.037c10.167 10.167 19.724 20.944 30.704 30.094 11.59 9.76 25.417 16.064 40.871 6.507 14.844-9.15 19.724-23.384 18.504-39.854-2.033-27.857-27.45-52.867-56.527-55.511-29.687-2.643-45.751 16.674-37.007 44.531 1.627 4.067 3.253 8.133 5.287 11.997l-1.83 2.237zM431.276 681.633c-11.183-9.76-20.944-21.757-33.754-28.467-19.724-10.37-41.684 2.44-44.734 24.807-3.863 28.67 9.557 50.427 30.704 67.508 11.793 9.353 26.027 6.507 38.024-2.44 13.624-9.963 17.487-23.79 14.437-39.244-1.423-6.71-4.88-13.014-7.523-19.52 1.22-0.813 2.033-1.627 2.847-2.643zM274.91 726.774c14.234 25.62 36.6 37.414 55.714 28.467 17.894-8.337 24.4-36.6 11.793-61.204-5.693-11.183-14.64-24.604-25.417-28.467-11.997-4.27-29.89-2.033-41.481 4.27-6.71 3.66-7.93 20.944-8.133 31.924-0.203 8.337 4.88 16.47 7.523 25.010zM407.282 641.576c7.93 10.573 12.81 16.877 17.487 23.587 8.337 11.793 20.944 17.69 33.144 10.573 9.15-5.287 18.097-17.487 19.927-27.857 5.287-28.67-5.897-52.664-30.704-67.508-8.133-4.88-22.57-7.523-30.297-3.66-7.32 3.66-13.42 17.080-14.030 26.434-1.017 14.030 3.050 28.264 4.473 38.431zM438.392 554.548c8.743 9.76 16.674 20.74 26.637 29.077 12.2 10.167 28.264 4.677 34.77-10.37 11.183-25.62 0-65.678-24.197-79.301-6.71-3.66-19.724-4.88-24.807-1.017-8.337 6.303-15.86 17.487-17.69 27.45-1.83 10.573 3.253 22.164 5.287 34.16zM440.019 753.207c-14.64 5.49-25.214 9.15-39.854 14.437 21.35 20.537 42.294 40.667 63.237 60.797 2.44-1.627 4.677-3.253 7.117-4.88-10.37-23.587-20.74-47.581-30.5-70.354zM284.467 812.988c-11.793-23.384-23.587-46.564-35.38-70.151l-42.904 9.76c26.434 23.79 49.411 44.531 72.591 65.474l5.693-5.083zM347.908 767.237c-14.437 1.627-26.23 3.050-40.464 4.677 17.080 28.060 42.904 44.327 71.981 57.951-10.777-21.35-21.554-42.701-31.517-62.627zM509.357 766.017c2.847-36.6-7.727-63.034-24.604-89.264-9.76 5.49-18.097 10.37-26.637 15.25 16.064 23.18 32.127 46.361 51.241 74.014zM530.3 670.653c-4.27-27.45-8.743-54.901-13.42-84.791-13.014 5.693-21.554 9.557-30.094 13.42 12.403 24.604 24.604 48.597 36.6 72.591l6.913-1.22zM726.316 532.791c-85.198 0-153.925-67.914-156.365-153.315v-303.784c0-7.93 6.303-14.234 14.234-14.234h285.077c7.93 0 14.234 6.303 14.234 14.234v303.784c-2.237 85.198-71.981 153.315-157.179 153.315zM759.053 113.512h-65.068l11.387 100.651c-14.437 11.59-16.877 32.737-5.287 47.377 11.59 14.437 32.737 16.877 47.377 5.287 14.437-11.59 16.877-32.737 5.287-47.377-1.627-2.033-3.253-3.66-5.287-5.287l11.59-100.651zM834.288 379.476v-53.274h-215.129v53.274c0.203 59.781 48.801 108.175 107.565 108.175 59.577 0 107.565-48.394 107.565-108.175z" />
<glyph unicode="&#xe90d;" d="M3.66 82.605c0-78.894 63.847-142.945 142.742-142.945h730.993c78.894 0 142.945 63.847 142.945 142.945v730.79c0 78.894-64.051 142.945-142.945 142.945h-730.79c-78.894 0-142.945-63.847-142.945-142.945v-730.79z" />
<glyph unicode="&#xe90e;" d="M877.395-64h-730.993c-80.724 0-146.402 65.678-146.402 146.605v730.79c0 80.928 65.678 146.605 146.605 146.605h730.79c80.928 0 146.605-65.678 146.605-146.605v-730.79c0-80.928-65.678-146.605-146.605-146.605zM146.605 952.68c-76.861 0-139.285-62.424-139.285-139.285v-730.79c0-76.861 62.424-139.285 139.082-139.285h730.993c76.861 0 139.285 62.424 139.285 139.285v730.79c0 76.861-62.424 139.285-139.285 139.285h-730.79z" />
<glyph unicode="&#xe90f;" d="M51.241 82.605c0-52.664 42.497-95.161 94.958-95.365h730.993c52.664 0 95.365 42.701 95.365 95.161v730.993c0 52.664-42.701 95.365-95.365 95.365h-730.586c-52.664 0-95.365-42.701-95.365-95.161v-730.993zM417.449 241.207c-4.27 5.287-11.387 7.727-14.844 0-0.61-1.423-1.423-2.643-2.237-3.863-1.22-1.83-1.22-2.643-3.66-2.643h-8.743c-21.757 2.44-28.264 3.66-50.224 0h-2.847c-5.287 0-10.777 0.203-16.064 1.017-6.507 1.22-12.2 4.677-16.47 9.76-6.1 7.523-16.064 28.467-20.334 45.751-2.847 11.59 2.237 24.197-2.237 34.77-0.407 1.017-1.017 2.643-1.83 4.88-4.473-0.61-8.743-2.237-12.403-4.88-13.217-10.37-28.874-18.097-42.904-27.654-6.1-4.27-29.28-23.18-14.64-28.060 3.253-1.017 5.693-1.22 8.54-2.237 6.71-2.847 26.637-17.487 24.4-26.027-0.203-0.813-0.61-1.423-1.423-1.83-1.423-0.61-2.847 0.407-4.067 1.83-2.847 3.253-6.303 8.337-11.793 4.473-1.423-1.017-1.627-3.050-2.44-4.473-1.017-1.627-2.643-2.847-4.473-3.66h-0.203c-3.050-0.813-14.437-0.203-24.604 0.61-27.857 2.44-23.587 14.64-34.364 37.414-0.203 0.203-0.203 0.407-0.203 0.61-2.643 5.287-4.88 10.777-6.913 16.47-5.287 15.86 3.253 28.467 12.607 40.667 29.28 37.414 33.347 57.137 36.6 101.668 0.203 6.507 0 13.217-0.407 19.724 0.203 4.067 0.813 8.133 1.83 11.997 2.44 10.777 5.897 21.147 10.37 31.314 1.22 2.643 2.237 5.287 3.253 8.133 5.49 16.47 5.897 30.907 19.52 43.107 0.407 3.253 1.22 6.303 2.643 9.15l1.423 2.44c9.353 17.080 46.767 38.024 64.051 49.004 10.573 6.1 21.35 11.59 32.534 16.47 4.067 1.83 8.133 3.253 12.403 4.473 15.047 4.473 33.957 7.117 49.817 9.557 4.067 0.61 8.337 1.22 12.403 1.627 26.027 2.44 35.584-3.863 59.374-10.573l1.423-0.407c17.69-4.88 35.99-7.727 53.681-4.88 33.347 5.287 44.124 33.957 76.048 35.787 6.1 0.407 12.2-0.407 18.097-2.033 24.197-7.727 28.467-18.504 56.324-21.147 17.080-1.627 46.767 1.423 60.594 11.387 0.61 0.407 1.017 0.813 1.627 1.017 4.88 2.643 13.014 3.863 16.674-1.627 0.407-0.813-0.407-1.423-0.813-2.237-1.017-6.1 1.83-11.997 7.32-14.844 23.587-9.963 44.327-26.637 61.001-45.751 4.88-5.693 27.654-19.114 36.397-23.18 5.083-1.83 9.76-4.473 14.234-7.727 1.017-0.813 1.83-1.627 2.643-2.643 0.203-2.033 0-4.27 0-6.303-1.423-12.2-14.234-42.091-27.857-42.091h-6.507c-16.47 0-17.284-3.66-31.72-11.387-8.337-4.473-21.35-2.237-30.5-3.66-3.66-0.61-7.117-1.22-10.777-2.033-15.25-3.863-16.064-1.22-30.704-9.557-11.387-6.71-11.997-6.913-21.757-5.897-3.253 0.203-21.147 2.033-24.807-0.813-1.423-1.423 1.423-3.457-1.83-8.54-2.44-3.863-3.457-51.647-2.033-64.661 0.203-6.913-1.423-13.827-5.083-19.927-3.66-6.303-19.114 0.203-16.064-19.114 3.66-21.35 5.287-37.82 18.097-55.714 0.407-0.407 0.61-1.017 1.017-1.627 4.27-10.167-7.117-35.584 17.284-37.617 1.627-0.203 2.44 1.22 4.27 1.22h3.457c12.403 0 41.277-14.030 39.651-29.484h-0.813c-3.863 0-1.22 1.017-3.050 3.253-1.627 1.83-3.457 3.253-5.49 4.27-6.303 4.067-8.54 3.66-11.997 0-8.54-9.15-7.523-8.133-19.724-8.133h-4.473c-5.083 0-48.191 1.627-49.817 2.44-2.643 1.83-4.677 4.067-6.303 6.71-3.863 6.71-8.133 11.997-14.64 14.64-14.437 6.303-18.504 4.677-24.4 16.877-1.627 3.457-3.457 7.93-5.49 12.607-7.727 18.504-10.98 20.944-22.977 35.787-1.423 1.627-2.033 3.457-2.033 5.693v0.407c-0.407 0-1.017-0.203-1.423-0.407-5.897-3.253-5.49-21.757-7.93-29.484s-5.083-14.234-2.44-20.334c5.693-12.81 24.197-7.117 35.38-10.573 6.1-1.83 11.387-6.1 14.234-11.793 1.22-3.050 2.033-6.303 2.033-9.76-1.22-0.203-2.44-0.203-3.457 0-3.050 1.017-4.27 7.32-9.15 4.677-2.237-1.22-2.44-4.067-5.287-4.88-8.947-1.627-18.097-2.237-27.247-2.237-2.847 0-5.693 0.407-8.337 1.017-4.473 1.017-8.54 0-13.014-0.203-25.824-1.423-28.467 12.403-46.564 28.060-1.017 1.017-2.237 2.033-3.253 3.050-11.997 11.59-13.42 27.857-12.81 43.921s4.27 29.89 9.353 45.344v5.897h-3.66c-0.407-2.237-2.033-3.863-4.27-4.27v-0.407c0-3.457-20.74-3.66-25.214-4.067-20.944-2.237-43.921-4.473-62.831-13.827-2.237-1.22-6.1 5.083-14.030 1.22-2.847-1.423-5.083-3.457-6.71-6.1-0.407-0.813-1.627-10.37-3.66-28.874-0.813-6.507-2.643-13.014-5.287-19.114v-0.203c-20.13-47.377 11.793-27.45 38.431-42.294 2.033-1.017 3.863-2.44 5.49-3.863 1.22-1.017 2.237-2.033 3.253-3.050 1.22-1.627 2.44-3.253 3.457-5.083 3.050-5.49 4.067-8.743 3.253-9.76-1.83-1.017-4.067-0.61-5.083 1.22-0.813 1.627-0.407 2.643-1.627 4.473-0.61 1.017-0.813 1.423-1.22 1.627z" />
<glyph unicode="&#xe910;" d="M3.66 82.605c0-78.894 63.847-142.945 142.742-142.945h730.993c78.894 0 142.945 63.847 142.945 142.945v730.79c0 78.894-64.051 142.945-142.945 142.945h-730.79c-78.894 0-142.945-63.847-142.945-142.945v-730.79z" />
<glyph unicode="&#xe911;" d="M877.395-64h-730.993c-80.724 0-146.402 65.678-146.402 146.605v730.79c0 80.928 65.678 146.605 146.605 146.605h730.79c80.928 0 146.605-65.678 146.605-146.605v-730.79c0-80.928-65.678-146.605-146.605-146.605zM146.605 952.68c-76.861 0-139.285-62.424-139.285-139.285v-730.79c0-76.861 62.424-139.285 139.082-139.285h730.993c76.861 0 139.285 62.424 139.285 139.285v730.79c0 76.861-62.424 139.285-139.285 139.285h-730.79z" />
<glyph unicode="&#xe912;" d="M51.241 82.605c0-52.664 42.497-95.161 95.161-95.365h730.993c52.664 0 95.365 42.701 95.365 95.161v730.993c0 52.664-42.701 95.365-95.365 95.365h-730.79c-52.664 0-95.365-42.701-95.365-95.161v-730.993zM510.373 484.804c19.114 0 34.77-15.454 34.77-34.77 0-19.114-15.454-34.77-34.77-34.77-19.114 0-34.77 15.454-34.77 34.77s15.454 34.77 34.77 34.77zM510.373 513.678c-35.177 0-63.441-28.467-63.441-63.441s28.467-63.441 63.441-63.441 63.441 28.467 63.441 63.441-28.264 63.441-63.441 63.441zM485.363 659.876s-65.068-41.277-64.864-41.277l429.242-121.798-66.694-87.434-195.813 54.087v-27.044l239.53-66.694-10.37-25.010-231.396 68.728h-6.303c-27.857-79.098-173.649-38.431-150.062 43.717l-235.26 66.694 6.303 22.977 237.496-68.728c6.507 13.014 11.59 20.13 15.657 21.96-81.538 20.334-131.762 37.21-150.469 50.427-17.487 12.2-52.664 57.747-52.664 77.674v41.684l156.162-47.987c-0.203 0 72.794 48.191 72.794 48.394s6.71-10.37 6.71-10.37zM738.923 232.667c-2.033-0.407-3.863-1.017-5.693-1.83-3.457-1.83-7.117-3.253-10.98-4.27h-27.044c-15.454 0-21.757 2.847-22.977 12.607l0.813 10.37c-4.067-6.303-9.76-11.793-16.267-15.657l-9.353-5.287h-29.28c-3.050 0-9.76 5.287-19.724 15.657-13.42-10.37-26.84-15.657-40.667-15.657h-427.006v245.833l762.51-218.79v-10.37l-4.067-8.337c-35.177-17.69-56.121-14.437-62.424 9.353l-2.033-5.287-4.067-8.337c-2.643-5.287-15.657-6.303-16.674-6.303h-35.584c-6.507 0-13.42 3.457-20.74 10.37v6.303l-8.743-10.37z" />
<glyph unicode="&#xe913;" d="M3.66 82.605c0-78.894 63.847-142.945 142.742-142.945h730.993c78.894 0 142.945 63.847 142.945 142.945v730.79c0 78.894-64.051 142.945-142.945 142.945h-730.79c-78.894 0-142.945-63.847-142.945-142.945v-730.79z" />
<glyph unicode="&#xe914;" d="M877.395-64h-730.993c-80.724 0-146.402 65.678-146.402 146.605v730.79c0 80.928 65.678 146.605 146.605 146.605h730.79c80.928 0 146.605-65.678 146.605-146.605v-730.79c0-80.928-65.678-146.605-146.605-146.605zM146.605 952.68c-76.861 0-139.285-62.424-139.285-139.285v-730.79c0-76.861 62.424-139.285 139.082-139.285h730.993c76.861 0 139.285 62.424 139.285 139.285v730.79c0 76.861-62.424 139.285-139.285 139.285h-730.79z" />
<glyph unicode="&#xe915;" d="M51.241 82.605c0-52.664 42.497-95.161 94.958-95.365h730.993c52.664 0 95.365 42.497 95.365 95.161v730.993c0 52.664-42.701 95.365-95.365 95.365h-730.586c-52.664 0-95.365-42.497-95.365-95.161v-730.993zM296.667 325.795l177.106 165.719-72.388-333.064-104.718 167.346zM877.801 112.089h-236.276l-139.082 423.549-220.010-210.046 131.558-213.096h-267.183l146.809 499.19h426.599l157.585-499.597zM507.73 781.471l203.743-155.349-411.755-0.813 208.013 156.162z" />
<glyph unicode="&#xe916;" d="M3.66 82.605c0-78.894 63.847-142.945 142.742-142.945h730.993c78.894 0 142.945 63.847 142.945 142.945v730.79c0 78.894-64.051 142.945-142.945 142.945h-730.79c-78.894 0-142.945-63.847-142.945-142.945v-730.79z" />
<glyph unicode="&#xe917;" d="M877.395-64h-730.993c-80.724 0-146.402 65.678-146.402 146.605v730.79c0 80.928 65.678 146.605 146.605 146.605h730.79c80.928 0 146.605-65.678 146.605-146.605v-730.79c0-80.928-65.678-146.605-146.605-146.605zM146.605 952.68c-76.861 0-139.285-62.424-139.285-139.285v-730.79c0-76.861 62.424-139.285 139.082-139.285h730.993c76.861 0 139.285 62.424 139.285 139.285v730.79c0 76.861-62.424 139.285-139.285 139.285h-730.79z" />
<glyph unicode="&#xe918;" d="M51.241 82.605c0-52.664 42.497-95.161 95.161-95.365h730.993c52.664 0 95.365 42.701 95.365 95.161v730.993c0 52.664-42.701 95.365-95.365 95.365h-730.79c-52.664 0-95.365-42.497-95.365-95.161v-730.993zM296.667 325.795l177.106 165.719-72.388-333.064-104.718 167.346zM877.801 112.089h-236.276l-139.082 423.549-219.806-210.046 131.558-213.096h-267.387l146.809 499.19h426.599l157.585-499.597zM507.73 781.471l203.743-155.349-411.755-0.813 208.013 156.162z" />
<glyph unicode="&#xe919;" d="M972.759 106.599l-802.16 802.16h-23.994c-52.664 0-95.365-42.701-95.365-95.161v-23.587l802.364-802.364h23.587c52.664 0 95.365 42.701 95.365 95.161v23.79z" />
<glyph unicode="&#xe91a;" d="M3.66 82.605c0-78.894 63.847-142.945 142.742-142.945h730.993c78.894 0 142.945 63.847 142.945 142.945v730.79c0 78.894-64.051 142.945-142.945 142.945h-730.79c-78.894 0-142.945-63.847-142.945-142.945v-730.79z" />
<glyph unicode="&#xe91b;" d="M877.395-64h-730.993c-80.724 0-146.402 65.678-146.402 146.605v730.79c0 80.928 65.678 146.605 146.605 146.605h730.79c80.928 0 146.605-65.678 146.605-146.605v-730.79c0-80.928-65.678-146.605-146.605-146.605zM146.605 952.68c-76.861 0-139.285-62.424-139.285-139.285v-730.79c0-76.861 62.424-139.285 139.082-139.285h730.993c76.861 0 139.285 62.424 139.285 139.285v730.79c0 76.861-62.424 139.285-139.285 139.285h-730.79z" />
<glyph unicode="&#xe91c;" d="M51.241 82.605c0-52.664 42.497-95.161 94.958-95.365h730.993c52.664 0 95.365 42.497 95.365 95.161v730.993c0 52.664-42.701 95.365-95.365 95.365h-730.586c-52.664 0-95.365-42.701-95.365-95.161v-730.993z" />
<glyph unicode="&#xe91d;" d="M484.143 404.689c-42.294-29.484-67.508-77.674-67.711-129.322 0-83.978 70.354-154.535 155.349-154.535 74.218 0.203 137.862 52.664 152.095 125.458l22.164-55.917c-32.534-66.694-100.041-108.988-174.259-108.988-106.548 0-194.389 87.841-194.389 194.593 0 70.558 41.481 138.675 103.091 171.616l3.66-42.904z" />
<glyph unicode="&#xe91e;" d="M516.27 330.472l-23.587 278.164c-3.66 6.913-5.49 14.64-5.49 22.57 0 28.060 21.35 48.597 49.207 48.597 25.010 0 47.377-21.96 47.377-48.597 0-24.807-19.927-46.361-44.327-47.784l10.777-119.562h140.505v-43.921h-137.048l3.863-45.344h192.153l68.118-177.512 69.948 26.637 16.064-40.667-111.428-43.717-73.404 190.932-202.726 0.203zM178.326 659.266l74.014 69.338-30.297-139.285-43.717 69.948z" />
<glyph unicode="&#xe91f;" d="M421.312 569.188h-98.821l-57.951 177.106-91.908-87.638 54.901-89.264h-111.631l61.407 208.826h178.122l65.881-209.029zM267.59 850.605l85.198-64.864-172.022-0.203 86.824 65.068z" />
<glyph unicode="&#xe920;" d="M3.66 82.605c0-78.894 63.847-142.945 142.742-142.945h730.993c78.894 0 142.945 63.847 142.945 142.945v730.79c0 78.894-64.051 142.945-142.945 142.945h-730.79c-78.894 0-142.945-63.847-142.945-142.945v-730.79z" />
<glyph unicode="&#xe921;" d="M877.395-64h-730.993c-80.724 0-146.402 65.678-146.402 146.605v730.79c0 80.928 65.678 146.605 146.605 146.605h730.79c80.928 0 146.605-65.678 146.605-146.605v-730.79c0-80.928-65.678-146.605-146.605-146.605zM146.605 952.68c-76.861 0-139.285-62.424-139.285-139.285v-730.79c0-76.861 62.424-139.285 139.082-139.285h730.993c76.861 0 139.285 62.424 139.285 139.285v730.79c0 76.861-62.424 139.285-139.285 139.285h-730.79z" />
<glyph unicode="&#xe922;" d="M51.241 82.605c0-52.664 42.497-95.161 94.958-95.365h730.993c52.664 0 95.365 42.701 95.365 95.161v730.993c0 52.664-42.701 95.365-95.365 95.365h-730.586c-52.664 0-95.365-42.701-95.365-95.161v-730.993z" />
<glyph unicode="&#xe923;" d="M792.4 111.479l-0.203-61.611h-37.21v183.409l36.6 0.203 1.83-14.030c9.76 12.2 24.604 19.114 40.057 18.707 37.82 0 60.594-35.38 60.594-72.998 0-39.651-23.384-74.624-61.204-74.624-18.707 0-32.534 8.133-40.464 20.944zM503.053 90.129c-42.091 0-72.794 29.484-72.794 75.031 0 43.717 30.5 73.811 72.591 73.811 42.701 0 72.998-30.297 72.998-73.811 0-45.344-30.907-75.031-72.794-75.031z" />
<glyph unicode="&#xe924;" d="M825.747 119.206c21.96 0.203 30.5 23.384 30.5 43.717 0 30.704-16.267 43.107-32.127 43.107-15.25 0-31.517-11.793-31.517-45.141 0-29.687 15.25-41.684 33.144-41.684zM502.85 119.206c18.097 0 34.974 13.42 34.974 45.751 0 31.517-16.47 44.734-34.77 44.734s-34.77-13.014-34.77-45.954c0-31.11 17.080-44.531 34.567-44.531z" />
<glyph unicode="&#xe925;" d="M688.902 110.869c-8.337-13.014-21.96-20.334-39.041-20.334-14.844 0-26.434 4.88-34.364 12.403-8.947 8.133-13.827 17.894-13.827 35.787v94.958h37.21v-82.554c0-19.317 8.54-26.84 22.367-26.84 15.047 0 27.654 10.777 27.654 32.127v77.268h37.007l0.203-138.472h-34.974l-2.237 15.657zM337.741 95.212l0.203 138.472h36.6l1.22-20.74c4.88 15.047 18.91 25.010 34.567 24.807 2.643 0 5.287-0.407 7.93-1.017l-0.203-32.737c-2.033 0.203-4.27 0.407-6.303 0.407-9.557 0.203-18.91-3.66-25.417-10.777-6.1-6.507-11.183-16.267-11.183-36.804l-0.203-61.407-37.21-0.203zM227.33 167.193v29.89h81.741l0.203-101.871h-29.687l-1.83 25.62c-5.287-10.37-13.827-18.707-24.197-23.994-11.387-5.693-23.79-8.54-36.397-8.133-20.13 0-40.057 7.523-57.747 24.604-18.097 17.487-29.484 42.091-29.484 76.454 0 55.104 33.754 103.905 91.908 103.905 27.857 0 48.394-8.743 63.034-22.164 11.793-10.98 19.724-24.197 23.587-43.717l-38.837-1.22c-4.473 20.334-21.96 34.974-44.937 34.974-33.754 0-54.697-31.924-54.697-70.964 0-47.581 26.434-68.728 54.087-68.728 33.754 0 49.817 27.857 51.037 45.344h-47.784zM346.281 495.784l136.032 127.085-55.511-255.593-80.521 128.508z" />
<glyph unicode="&#xe926;" d="M791.587 332.912h-181.172l-106.751 324.931-168.769-161.042 101.058-163.482h-205.166l112.648 383.085h327.371l120.782-383.492zM508.95 846.132l156.365-119.155-315.984-0.61 159.619 119.765z" />
<glyph unicode="&#xe927;" d="M3.66 82.605c0-78.894 63.847-142.945 142.742-142.945h730.993c78.894 0 142.945 63.847 142.945 142.945v730.79c0 78.894-64.051 142.945-142.945 142.945h-730.79c-78.894 0-142.945-63.847-142.945-142.945v-730.79z" />
<glyph unicode="&#xe928;" d="M877.395-64h-730.993c-80.724 0-146.402 65.678-146.402 146.605v730.79c0 80.928 65.678 146.605 146.605 146.605h730.79c80.928 0 146.605-65.678 146.605-146.605v-730.79c0-80.928-65.678-146.605-146.605-146.605zM146.605 952.68c-76.861 0-139.285-62.424-139.285-139.285v-730.79c0-76.861 62.424-139.285 139.082-139.285h730.993c76.861 0 139.285 62.424 139.285 139.285v730.79c0 76.861-62.424 139.285-139.285 139.285h-730.79z" />
<glyph unicode="&#xe929;" d="M51.241 82.605c0-52.664 42.497-95.161 94.958-95.365h730.993c52.664 0 95.365 42.701 95.365 95.161v730.993c0 52.664-42.701 95.365-95.365 95.365h-730.586c-52.664 0-95.365-42.701-95.365-95.161v-730.993z" />
<glyph unicode="&#xe92a;" d="M925.382 257.068c-5.897-30.094-31.924-62.221-87.434-62.221h-651.692c-55.511 0-81.538 32.127-87.638 62.221-1.017 4.88-1.423 9.963-1.627 15.047-0.203 30.297 17.894 57.747 45.751 69.338 34.364 14.234 262.913 106.345 351.568 140.505-2.237 6.303-3.253 12.81-3.253 19.52v1.017c0.61 26.637 17.487 50.224 42.497 59.374 14.030 5.287 23.79 13.42 28.874 24.604 2.643 5.897 3.863 12.2 3.863 18.707 0 7.727-1.627 15.25-4.27 22.367-10.777 28.264-38.837 37.82-60.187 34.567-26.027-3.66-42.701-23.18-45.141-52.257-0.61-10.37-9.557-18.504-20.13-17.894-10.37 0.61-18.504 9.557-17.894 20.13v0.813c3.66 46.564 34.16 80.521 77.471 86.824 43.311 6.507 85.401-17.894 100.855-58.764 9.353-24.4 9.15-49.411-0.407-70.354-9.353-20.334-26.637-35.787-50.427-44.327-10.37-3.66-17.284-13.217-17.69-24.197-0.203-13.014 9.76-24.197 27.247-31.11l95.771-38.024c90.485-35.787 203.336-80.724 229.16-91.298 33.347-13.217 51.851-48.801 44.734-84.588z" />
<glyph unicode="&#xe92b;" d="M867.025 306.681c-25.62 10.573-138.268 55.307-228.956 91.298l-95.771 38.024c-8.947 3.66-17.487 8.54-25.214 14.64-79.911-30.907-324.321-129.322-359.905-143.962-15.047-6.1-21.96-21.35-21.96-34.974 0-2.44 0.203-4.677 0.61-7.117 3.863-20.13 22.164-31.72 50.427-31.72h651.895c27.857 0 46.361 11.59 50.224 31.517 0.407 2.44 0.61 4.88 0.61 7.32 0 13.624-6.913 28.874-21.96 34.974z" />
<glyph unicode="&#xe92c;" d="M3.66 82.605c0-78.894 63.847-142.945 142.742-142.945h730.993c78.894 0 142.945 63.847 142.945 142.945v730.79c0 78.894-64.051 142.945-142.945 142.945h-730.79c-78.894 0-142.945-63.847-142.945-142.945v-730.79z" />
<glyph unicode="&#xe92d;" d="M877.395-64h-730.993c-80.724 0-146.402 65.678-146.402 146.605v730.79c0 80.928 65.678 146.605 146.605 146.605h730.79c80.928 0 146.605-65.678 146.605-146.605v-730.79c0-80.928-65.678-146.605-146.605-146.605zM146.605 952.68c-76.861 0-139.285-62.424-139.285-139.285v-730.79c0-76.861 62.424-139.285 139.082-139.285h730.993c76.861 0 139.285 62.424 139.285 139.285v730.79c0 76.861-62.424 139.285-139.285 139.285h-730.79z" />
<glyph unicode="&#xe92e;" d="M163.075 908.759h698.052c61.611 0 111.631-50.021 111.631-111.631v-698.052c0-61.611-50.021-111.631-111.631-111.631h-698.052c-61.611 0-111.631 50.021-111.631 111.631v698.052c0 61.611 49.817 111.631 111.631 111.631z" />
<glyph unicode="&#xe92f;" d="M884.105 607.009c-2.44-3.863-6.507-6.71-11.183-7.727h-0.61l-166.329-43.717c-12.607 5.287-31.72 17.894-54.697 38.431-4.067 3.66-8.54 7.32-13.624 11.387 3.050 0.407 6.303 0.813 9.557 1.423 6.507 1.017 133.185 16.877 216.756 27.044h0.61l0.61 0.203c9.557 2.033 19.114-3.863 21.147-13.42 1.22-4.88 0.407-9.76-2.237-13.624zM730.18 535.841l31.11 7.93c-3.253-16.877-10.777-33.144-22.164-44.531 0.407 13.217-3.863 26.434-8.947 36.6zM180.562 396.556h688.902v-123.425h-688.902v123.425zM358.481 246.291h329.608v-154.942h-329.608v154.942zM310.494 498.834c-11.793 11.387-19.317 27.857-22.774 44.937l31.11-7.93c-4.88-10.37-9.15-23.79-8.337-37.007zM174.666 599.282c-8.133 1.83-14.030 8.947-14.030 17.487 0 1.22 0.203 2.44 0.407 3.863 2.033 9.557 11.59 15.657 21.147 13.624l0.61-0.203h0.61l29.28-3.66c23.79-2.847 49.004-6.1 73.201-9.15 58.561-7.32 110.005-13.624 114.071-14.437 3.863-0.61 7.32-1.22 10.777-1.627-4.88-3.863-9.557-7.523-13.42-11.183-23.18-20.944-42.497-33.55-55.104-38.837l-167.346 43.717-0.203 0.407zM137.048 709.083v95.568c7.727-10.37 16.267-21.554 25.214-33.144l-13.827-76.251c-3.863 4.88-7.727 9.353-11.387 13.827zM210.453 710.71l-8.947-49.817-14.437 1.83 1.22-0.203c-5.083 1.017-10.37 1.22-15.657 0.61-3.66 4.27-7.32 8.54-10.98 13.014l14.234 79.504c10.167-13.42 21.96-28.67 34.567-44.937zM224.076 693.427c10.573-13.014 21.554-26.23 32.737-39.447l-38.837 4.88 6.1 34.567zM396.098 656.013c-1.017-3.253-1.83-6.507-2.033-9.76-0.203-4.27 0.203-8.743 1.423-12.81l-49.004 5.897c15.657 7.727 32.33 13.217 49.614 16.674zM410.535 645.236c0.407 5.083 2.44 9.963 6.1 13.827 5.083 0.407 10.37 0.813 15.657 0.813 20.537-0.203 41.074-2.643 61.001-7.523-16.47-6.913-32.534-15.047-47.987-23.994-4.067 0.407-7.93 0.813-11.997 0.813l-18.097 2.237c-3.253 3.66-5.083 8.743-4.677 13.827zM497.97 604.365v-2.847c0.203-3.863 0.203-7.523 0.61-10.98 0.203-2.847 0.407-5.49 0.813-7.93-16.674-11.387-32.737-23.994-47.581-37.82-10.98 19.114-11.183 38.634-0.407 59.577 0.407 1.017 1.017 1.83 1.423 2.847 0.813 1.423 1.627 2.847 2.44 4.067 2.033 1.22 4.27 2.44 6.507 3.66 3.863 2.237 7.93 4.27 11.997 6.507 7.93 4.067 16.064 7.93 24.807 11.59-0.407-6.1-0.813-13.42-0.813-20.944 0.203-2.643 0.203-5.287 0.203-7.727zM514.44 604.365c0 13.014 0.61 27.857 1.22 35.584 2.847 1.017 5.897 2.033 8.743 3.050l15.25 4.88c5.083 1.627 10.573 2.847 15.86 4.27 3.66 0.813 7.523 1.627 11.183 2.44 0.813-1.22 1.423-2.44 2.033-3.863 0.61-1.627 1.017-3.253 1.423-5.083 0.61-3.66 1.017-7.523 1.017-11.387 0-3.457-0.407-7.117-0.813-10.573-0.203-1.423-0.407-2.847-0.813-4.067-11.793-4.27-23.384-9.353-34.364-15.25-3.66-1.83-7.32-3.863-10.777-5.897-3.253-1.83-6.507-3.66-9.557-5.693-0.203 3.457-0.203 7.32-0.407 11.183l-0.813 0.407h0.813zM668.772 519.778c-0.61-9.76-5.083-19.114-12.403-25.62-5.897 3.253-11.59 6.913-17.080 10.98-9.15 7.117-17.69 14.844-25.62 23.384-1.22 1.22-2.44 2.643-3.863 3.863 12.607 19.927 15.86 40.667 9.557 62.017 6.507-4.677 12.81-9.76 18.91-15.047 5.287-4.88 10.98-9.76 16.877-14.437 4.067-6.303 7.523-13.217 9.963-20.334 3.050-7.727 4.27-16.267 3.66-24.807zM543.314 586.675c13.217 7.32 27.247 13.217 41.684 17.69 3.66 1.22 7.523 2.033 11.183 2.847 0.61-1.017 1.017-1.83 1.423-2.847 11.183-20.944 11.183-40.871 0-59.984-16.226 14.879-33.95 28.791-52.696 41.293l-1.595 1.001zM439.612 532.994c-1.423-1.423-2.847-2.847-4.27-4.473-8.337-8.947-17.284-17.080-27.044-24.4-4.677-3.457-9.76-6.71-14.844-9.557-7.523 6.507-11.997 15.86-12.607 25.824-0.407 8.133 0.61 16.267 3.253 23.994 2.44 7.32 5.693 14.234 9.963 20.74 5.897 4.677 11.59 9.76 16.877 14.437 6.1 5.49 12.607 10.573 19.317 15.25-6.507-21.147-3.457-41.887 9.353-61.814zM364.175 519.168c0.813-11.59 5.287-22.774 13.014-31.517-14.030-4.473-25.62-3.66-35.38-3.050-3.66 0.203-7.32 1.017-10.777 2.033-2.033 3.253-3.253 6.913-3.66 10.777-1.627 12.607 3.863 27.044 9.353 36.397 9.353 1.22 19.927 6.1 30.704 12.607-2.847-8.743-3.863-17.894-3.253-27.247zM678.532 441.087v-13.827h-309.477v13.624c2.44 2.44 5.287 4.473 8.133 6.303l4.067 2.847s15.454 11.387 15.657 11.387c6.303 4.473 10.37 11.387 11.387 19.114 12.607 7.523 26.434 18.707 41.481 34.567 17.894 19.317 45.344 42.091 75.031 60.391 27.45-17.080 52.664-37.414 75.031-60.391 11.793-13.014 25.214-24.197 39.854-33.754 0.813-8.133 4.88-15.454 11.387-20.13l5.083-3.66 10.37-7.727 4.067-2.847c2.847-1.627 5.693-3.863 7.93-5.897zM681.989 546.211c10.777-6.507 21.147-10.98 30.5-12.403 5.693-9.353 11.387-23.994 9.76-37.007-0.407-3.457-1.423-6.71-3.050-9.76-3.863-1.22-7.727-2.033-11.793-2.237-9.557-0.61-20.74-1.423-34.567 2.847 7.32 8.743 11.793 19.724 12.607 31.11 0.407 9.15-0.813 18.504-3.457 27.45zM616.718 659.673c5.693 0 11.183-0.203 16.674-0.813 3.253-3.66 5.083-8.337 5.49-13.014 0.407-5.49-1.627-10.777-5.083-14.844l-18.097-2.237c-4.067 0-7.93-0.407-11.997-0.813-5.083-0.61-9.963-1.627-15.047-2.643l-1.627-0.407v1.22c0.407 3.66 0.61 7.117 0.407 10.777 0 6.71-1.22 13.217-3.457 19.52-0.203 0.407-0.203 0.61-0.407 0.813 11.183 1.627 22.164 2.44 33.144 2.44zM702.526 639.339l-48.801-5.897c1.423 4.27 2.033 8.947 1.627 13.42-0.203 3.050-0.813 6.1-1.627 9.15 16.877-3.66 33.347-9.15 48.801-16.674z" />
<glyph unicode="&#xe930;" d="M3.66 82.605c0-78.894 63.847-142.945 142.742-142.945h730.993c78.894 0 142.945 63.847 142.945 142.945v730.79c0 78.894-64.051 142.945-142.945 142.945h-730.79c-78.894 0-142.945-63.847-142.945-142.945v-730.79z" />
<glyph unicode="&#xe931;" d="M877.395-64h-730.993c-80.724 0-146.402 65.678-146.402 146.605v730.79c0 80.928 65.678 146.605 146.605 146.605h730.79c80.928 0 146.605-65.678 146.605-146.605v-730.79c0-80.928-65.678-146.605-146.605-146.605zM146.605 952.68c-76.861 0-139.285-62.424-139.285-139.285v-730.79c0-76.861 62.424-139.285 139.082-139.285h730.993c76.861 0 139.285 62.424 139.285 139.285v730.79c0 76.861-62.424 139.285-139.285 139.285h-730.79z" />
<glyph unicode="&#xe932;" d="M163.075 908.759h698.052c61.611 0 111.631-50.021 111.631-111.631v-698.052c0-61.611-50.021-111.631-111.631-111.631h-698.052c-61.611 0-111.631 50.021-111.631 111.631v697.849c-0.203 61.814 49.817 111.835 111.631 111.835z" />
<glyph unicode="&#xe933;" d="M561.411 312.375h-446.119l20.334 162.262c0 19.317 17.284 36.6 38.634 36.6l162.669 16.47 167.142-16.47c19.927 0 37.21-17.080 37.21-38.227l20.13-160.635zM147.622 341.045h381.255l-16.267 129.932c-0.203 7.117-4.677 11.387-10.167 11.387l-165.515 16.47-161.245-16.47c-6.913 0-11.59-4.473-11.59-9.76l-16.47-131.558zM886.138 163.533c-37.007 18.504-70.761 14.844-117.325-4.677-26.434-11.183-68.524-8.133-98.415 4.27-41.074 17.284-64.254 13.014-107.158-2.44-33.347-11.997-63.441-11.997-96.585 0-42.904 15.454-65.068 19.724-106.141 2.44-29.687-12.607-72.388-15.454-99.025-4.27-46.564 19.52-79.708 23.18-116.512 4.677 0 0-15.86-9.76-51.037-9.76v-38.634c35.177 0 51.037 9.76 51.037 9.76 37.007 18.504 70.151 14.844 116.512-4.88 26.434-11.183 69.134-8.133 99.025 4.27 41.074 17.284 63.237 13.217 106.141-2.44 33.144-11.997 63.237-11.997 96.585 0 42.904 15.454 66.288 19.724 107.158 2.44 29.687-12.607 71.778-15.454 98.415-4.27 46.564 19.52 80.318 23.18 117.325 4.88 0 0 15.25-9.76 51.037-9.76v38.634c-35.584 0-51.037 9.76-51.037 9.76z" />
<glyph unicode="&#xe934;" d="M327.574 514.084h21.554v-82.758h-21.554v82.758z" />
<glyph unicode="&#xe935;" d="M261.693 185.493c26.434-13.827 69.134-10.167 99.025 5.287 41.074 21.35 63.237 16.267 106.141-3.050 9.963-4.473 20.537-7.523 31.517-9.15 44.124 71.371 88.451 146.199 88.451 146.199 7.93 18.097 0 34.567-18.91 42.497l-31.517 12.607-200.693 67.711-195.609-67.711-31.517-12.607c-18.91-7.93-26.84-24.4-18.91-42.497 0 0 34.77-58.967 75.641-124.645 29.484 10.777 58.561 5.083 96.381-14.64z" />
<glyph unicode="&#xe936;" d="M302.361 170.853c-16.064 0-31.314 3.050-43.311 9.353-38.227 19.927-64.864 23.994-91.501 14.64l-4.473-1.627-2.643 4.067c-40.261 64.864-75.234 124.035-75.641 124.645-4.677 10.573-5.083 20.537-1.423 29.28 3.863 9.557 11.793 17.080 23.18 21.757l31.517 12.607 197.846 68.524 2.033-0.61 200.693-67.711 31.72-12.81c11.387-4.677 19.317-12.2 23.18-21.757 3.457-9.353 3.050-19.724-1.017-28.67-0.813-1.423-45.141-76.454-88.858-147.012l-2.033-3.457-3.863 0.61c-11.387 1.83-22.367 4.88-32.94 9.557-40.871 18.3-61.407 23.79-101.058 3.050-19.114-9.353-40.057-14.437-61.407-14.437zM264.54 190.78c23.587-12.403 63.847-9.963 93.535 5.287 43.514 22.774 68.524 16.267 111.428-2.847 8.337-3.66 17.080-6.507 26.027-8.133 42.904 69.338 85.808 141.929 86.214 142.742 2.643 5.897 2.847 12.607 0.61 18.707-2.643 6.507-8.337 11.793-16.674 15.25l-31.517 12.607-198.456 67.101-193.576-67.101-31.11-12.607c-8.133-3.457-14.030-8.743-16.47-15.25-2.44-6.303-2.033-13.42 1.017-19.317 0 0 33.55-56.527 72.794-119.562 28.060 8.54 57.137 3.457 96.178-16.877z" />
<glyph unicode="&#xe937;" d="M335.911 430.106l194.389-65.678 31.314-12.607c5.49-2.237 9.353-5.693 10.777-9.353 1.017-3.050 1.017-6.303 0-9.15-0.407-0.813-40.667-68.728-82.148-136.032-5.693 1.423-11.183 3.253-16.47 5.693-26.027 11.59-44.937 18.3-65.474 18.3-17.284 0-34.364-4.88-55.307-15.86-15.86-7.93-33.144-11.997-50.834-11.997-12.81 0-24.197 2.237-32.534 6.71-28.874 15.047-52.461 21.96-74.624 21.96-7.32 0-14.64-0.813-21.757-2.237-37.21 59.781-67.914 111.835-68.118 111.835-1.83 3.457-2.033 7.523-0.813 11.183 1.423 3.66 5.287 6.913 10.573 9.15l30.704 12.2 190.322 65.881zM335.911 447.797l-195.609-67.711-31.517-12.607c-18.91-7.93-26.84-24.4-18.91-42.497 0 0 34.77-58.967 75.641-124.645 9.353 3.457 19.317 5.083 29.28 5.287 20.13 0 41.684-6.913 66.898-20.13 11.183-5.897 25.417-8.54 40.261-8.54 20.334 0 40.464 4.677 58.764 13.827 18.504 9.557 33.144 13.827 47.581 13.827 17.69 0 34.974-6.303 58.561-16.877 9.963-4.473 20.537-7.523 31.517-9.15 44.124 71.371 88.451 146.199 88.451 146.199 7.93 18.097 0 34.567-18.91 42.497l-31.517 12.607-200.489 67.914zM758.24 377.239h178.936v-48.394h-178.936v48.394z" />
<glyph unicode="&#xe938;" d="M670.602 189.967c27.247-14.234 64.254-17.69 90.688-7.727l-3.050 226.516h-91.908v-217.163c1.627-0.61 2.643-0.813 4.27-1.627z" />
<glyph unicode="&#xe939;" d="M758.24 408.756l3.050-226.516c-10.98-3.863-22.367-5.897-33.957-5.693-19.724 0-39.041 4.677-56.731 13.42-1.627 0.813-2.847 1.017-4.27 1.627v217.163h91.908zM770.033 420.753h-115.698v-236.48l6.71-3.253 0.61-0.407 2.643-1.017c19.52-9.963 41.074-15.047 62.831-15.047 13.014-0.203 26.027 2.033 38.227 6.303l7.93 3.050v8.337l-3.050 226.72-0.203 11.793z" />
<glyph unicode="&#xe93a;" d="M803.38 704.203c14.437-0.203 26.027 11.387 26.23 25.824v0.813c-0.203 14.437-11.997 26.027-26.434 26.23-15.047 0-26.23-11.387-26.23-26.637 0-14.437 11.387-26.027 25.824-26.23h0.61zM782.437 632.426c13.827 55.917 23.384 73.811 45.751 73.811 6.913 0 11.793-3.253 22.57-12.607 5.693-4.88 7.32-11.59 11.59-17.487 4.27-6.913 7.727-14.234 10.573-21.757 2.44-6.507 3.457-12.607 6.1-19.52 1.423-3.863 3.050-10.167 4.067-13.827 4.473-16.47 5.693-25.824 5.693-28.67 0.203-8.337-0.407-16.674-1.83-24.807 1.22-5.693 3.253-11.387 5.897-16.47l44.734-135.625-23.994-19.52-58.967 128.915c-7.727-9.963-15.86-19.52-24.604-28.67l-5.287-27.247-13.014-70.354-37.414 7.117 17.080 83.978c8.337 34.974 26.637 81.538 38.024 98.008-7.117 11.793-12.403 21.757-17.894 33.144l-6.913-14.437-62.831-30.907-8.54-4.067-11.183 19.114 60.391 41.887z" />
<glyph unicode="&#xe93b;" d="M3.66 82.605c0-78.894 63.847-142.945 142.742-142.945h730.993c78.894 0 142.945 63.847 142.945 142.945v730.79c0 78.894-64.051 142.945-142.945 142.945h-730.79c-78.894 0-142.945-63.847-142.945-142.945v-730.79z" />
<glyph unicode="&#xe93c;" d="M877.395-64h-730.993c-80.724 0-146.402 65.678-146.402 146.605v730.79c0 80.928 65.678 146.605 146.605 146.605h730.79c80.928 0 146.605-65.678 146.605-146.605v-730.79c0-80.928-65.678-146.605-146.605-146.605zM146.605 952.68c-76.861 0-139.285-62.424-139.285-139.285v-730.79c0-76.861 62.424-139.285 139.082-139.285h730.993c76.861 0 139.285 62.424 139.285 139.285v730.79c0 76.861-62.424 139.285-139.285 139.285h-730.79z" />
<glyph unicode="&#xe93d;" d="M51.241 82.605c0-52.664 42.497-95.161 94.958-95.365h730.993c52.664 0 95.365 42.497 95.365 95.161v730.993c0 52.664-42.701 95.365-95.365 95.365h-730.586c-52.664 0-95.365-42.497-95.365-95.161v-730.993zM747.26 332.912c62.424 22.774 87.231-65.271 63.034-76.048l-112.851-49.817 91.705-23.587c30.094-7.727 19.317-86.011-13.217-81.334-1.627 0.203-252.34 55.917-254.373 55.104l-272.267-91.095c-44.734 1.627-48.597 76.658-39.854 83.368 7.727 5.897 130.948 47.987 129.728 48.597-62.017 23.587-114.275 44.124-124.645 48.597-22.774 9.557 3.050 80.114 32.33 73.201l285.484-65.474 214.926 78.488zM418.262 431.123c1.423 1.22-0.61 13.827-5.897 38.024-10.37 46.564-13.42 94.551-9.15 142.132 3.66 39.447 18.707 76.251 44.734 110.411 26.637 34.77 44.124 70.761 52.867 108.175 87.231-51.241 141.522-233.836 94.551-328.998l-21.554-43.514c-10.167-20.334-14.437-42.904-12.81-65.474 14.64 26.23 24.197 47.581 28.874 64.254l26.637 60.594c17.69 28.060 20.334 71.981 8.133 131.762-6.507 31.924-7.727 47.784-3.253 47.784 9.353-9.963 18.91-19.927 28.874-29.484 158.602-155.145 85.198-350.145-98.415-366.411-286.5-25.62-283.247 281.010-152.095 359.295l-8.54-47.987-4.677-41.684-5.287-41.481c-1.423-14.437 26.637-106.345 37.007-97.398zM462.996 338.809v5.083l-19.114 19.114c-8.947 8.947-41.277 8.337-41.277 4.473v-5.287l20.944-13.217 39.447-10.167zM539.247 339.012c-18.504 38.837-26.23 66.491-23.587 82.554l7.93 47.174v36.804l-18.3 41.887-12.607-20.13c-24.807-39.447-28.467-80.724-10.98-123.628 13.624-33.55 45.141-66.288 47.174-66.084l10.37 1.423zM607.161 345.112c18.91 2.033 35.177 11.183 48.801 27.654 21.96 26.84 21.554 70.151-1.423 129.728l-2.643-18.3c0-1.017-4.88-10.573-14.844-28.67-19.927-36.6-29.89-56.731-29.89-60.797v-49.614z" />
<glyph unicode="&#xe93e;" d="M3.66 82.605c0-78.894 63.847-142.945 142.742-142.945h730.993c78.894 0 142.945 63.847 142.945 142.945v730.79c0 78.894-64.051 142.945-142.945 142.945h-730.79c-78.894 0-142.945-63.847-142.945-142.945v-730.79z" />
<glyph unicode="&#xe93f;" d="M877.395-64h-730.993c-80.724 0-146.402 65.678-146.402 146.605v730.79c0 80.928 65.678 146.605 146.605 146.605h730.79c80.928 0 146.605-65.678 146.605-146.605v-730.79c0-80.928-65.678-146.605-146.605-146.605zM146.605 952.68c-76.861 0-139.285-62.424-139.285-139.285v-730.79c0-76.861 62.424-139.285 139.082-139.285h730.993c76.861 0 139.285 62.424 139.285 139.285v730.79c0 76.861-62.424 139.285-139.285 139.285h-730.79z" />
<glyph unicode="&#xe940;" d="M163.075 908.759h698.052c61.611 0 111.631-50.021 111.631-111.631v-698.052c0-61.611-50.021-111.631-111.631-111.631h-698.052c-61.611 0-111.631 50.021-111.631 111.631v697.849c-0.203 61.814 49.817 111.835 111.631 111.835z" />
<glyph unicode="&#xe941;" d="M865.601 100.295c0-24.4-19.927-44.124-44.327-44.124h-547.38c-24.4 0-44.124 19.724-44.327 44.124v102.888h45.141v-102.075h545.754v102.075h45.141zM158.399 377.646c10.167 34.364 28.264 66.084 52.461 92.518l179.749 194.999 12.607 50.021 38.227 41.277 58.154-53.274-247.46-266.167c-19.564-20.539-34.435-45.732-42.776-73.737l-0.331-1.294-50.631 15.657z" />
<glyph unicode="&#xe942;" d="M491.87 839.625l183.409-168.362c-39.041-43.311-75.844-72.184-134.405-77.878l-16.674 109.598-86.011 78.894 53.681 57.747zM546.974 267.844c38.634-0.203 69.744-31.517 69.541-70.151s-31.517-69.744-70.151-69.541c-38.431 0.203-69.541 31.314-69.541 69.948 0 38.431 31.517 69.744 70.151 69.744zM554.294 478.094l17.080 67.508c37.414-9.557 59.781-47.784 50.224-84.994-9.557-37.414-47.784-59.781-84.994-50.224-30.297 7.727-51.647 34.77-52.461 65.881v0.407l70.151 1.423z" />
<glyph unicode="&#xe943;" d="M539.654 494.157l-69.948 5.083c0.813 9.963 3.66 19.52 8.337 28.060 14.437 25.214 42.904 39.447 70.151 36.194l-8.54-69.338zM440.222 197.897c0.203-38.837-31.11-70.354-69.948-70.558s-70.354 31.11-70.558 69.948c-0.203 38.837 31.11 70.354 69.948 70.558h0.407c38.634 0 70.151-31.314 70.151-69.948zM388.372 335.759c-0.203 38.837 31.11 70.354 69.948 70.558s70.354-31.11 70.558-69.948-31.11-70.354-69.948-70.558h-0.407c-38.634 0-70.151 31.314-70.151 69.948zM706.389 335.759c0.203-38.837-31.11-70.354-69.948-70.558s-70.354 31.11-70.558 69.948 31.11 70.354 69.948 70.558h0.407c38.634 0 69.948-31.314 70.151-69.948zM794.23 197.897c0.203-38.837-31.11-70.354-69.948-70.558s-70.354 31.11-70.558 69.948 31.11 70.354 69.948 70.558h0.203c38.634 0 70.151-31.314 70.354-69.948-0.203 0-0.203 0 0 0z" />
<glyph unicode="&#xe944;" d="M3.66 82.605c0-78.894 63.847-142.945 142.742-142.945h730.993c78.894 0 142.945 63.847 142.945 142.945v730.79c0 78.894-64.051 142.945-142.945 142.945h-730.79c-78.894 0-142.945-63.847-142.945-142.945v-730.79z" />
<glyph unicode="&#xe945;" d="M877.395-64h-730.993c-80.724 0-146.402 65.678-146.402 146.605v730.79c0 80.928 65.678 146.605 146.605 146.605h730.79c80.928 0 146.605-65.678 146.605-146.605v-730.79c0-80.928-65.678-146.605-146.605-146.605zM146.605 952.68c-76.861 0-139.285-62.424-139.285-139.285v-730.79c0-76.861 62.424-139.285 139.082-139.285h730.993c76.861 0 139.285 62.424 139.285 139.285v730.79c0 76.861-62.424 139.285-139.285 139.285h-730.79z" />
<glyph unicode="&#xe946;" d="M51.241 82.605c0-52.664 42.497-95.161 95.161-95.365h730.993c52.664 0 95.365 42.701 95.365 95.161v730.993c0 52.664-42.701 95.365-95.365 95.365h-730.79c-52.664 0-95.365-42.701-95.365-95.161v-730.993z" />
<glyph unicode="&#xe947;" d="M846.894 903.066v-170.396c-20.74-4.27-40.261-43.921 0.203-62.221v-170.396c0.203-16.47-1.83-27.044-11.183-27.044h-33.144c-5.287 0-9.963 9.15-11.387 18.504-0.407 2.847 10.167-7.727 8.743-4.27-4.067 9.963-16.674 41.074-16.674 27.247v-33.347c0-12.403 7.32-19.114 21.96-19.114h27.654c19.114 0 23.384 20.74 23.384 28.264v179.139c26.027 0.813 49.004 50.631 0 63.034v170.599h-9.557z" />
<glyph unicode="&#xe948;" d="M849.538 683.26c12.607-3.66 30.704 12.81 17.894 29.484-6.913 8.337-23.384 9.15-29.28-0.813-5.897-8.337 1.627-25.62 11.387-28.67z" />
<glyph unicode="&#xe949;" d="M168.972 236.124c-1.22 1.22 51.037 89.875 47.987 95.568l-45.954 83.368 104.311-64.254 11.997 0.813 20.944 18.097c82.961 72.388 309.477 99.635 422.329 55.104 26.027-10.573 65.068-32.94 118.342-67.914-1.627-2.44-6.71-9.963-16.064-21.96-2.643-3.66-5.287-7.32-7.32-10.98 2.237-2.643 7.93-8.947 16.674-18.707 2.44-3.253 5.287-6.303 8.337-9.353-83.368-60.594-171.006-90.281-263.93-88.654-135.015 2.033-156.975 5.693-279.384 76.658l-23.384 13.014c-1.22 0.407-4.677 0.407-10.37 0-2.643 0-102.685-63.237-104.515-60.797z" />
<glyph unicode="&#xe94a;" d="M772.473 382.322c9.15 0 16.47-7.32 16.47-16.47s-7.32-16.47-16.47-16.47-16.47 7.32-16.47 16.47c0 8.947 7.32 16.47 16.47 16.47z" />
<glyph unicode="&#xe94b;" d="M3.66 82.605c0-78.894 63.847-142.945 142.742-142.945h730.993c78.894 0 142.945 63.847 142.945 142.945v730.79c0 78.894-64.051 142.945-142.945 142.945h-730.79c-78.894 0-142.945-63.847-142.945-142.945v-730.79z" />
<glyph unicode="&#xe94c;" d="M877.395-64h-730.993c-80.724 0-146.402 65.678-146.402 146.605v730.79c0 80.928 65.678 146.605 146.605 146.605h730.79c80.928 0 146.605-65.678 146.605-146.605v-730.79c0-80.928-65.678-146.605-146.605-146.605zM146.605 952.68c-76.861 0-139.285-62.424-139.285-139.285v-730.79c0-76.861 62.424-139.285 139.082-139.285h730.993c76.861 0 139.285 62.424 139.285 139.285v730.79c0 76.861-62.424 139.285-139.285 139.285h-730.79z" />
<glyph unicode="&#xe94d;" d="M51.241 82.605c0-52.664 42.497-95.161 95.161-95.365h730.993c52.664 0 95.365 42.701 95.365 95.161v730.993c0 52.664-42.701 95.365-95.365 95.365h-730.79c-52.664 0-95.365-42.701-95.365-95.161v-730.993z" />
<glyph unicode="&#xe94e;" d="M528.674 560.648l6.507 2.237c5.287 1.83 9.557 1.627 12.81-0.813 2.643-2.237 5.693-3.863 8.947-5.287l3.863 2.847c9.963 7.523 21.147 6.1 33.55-4.067l10.167-8.337c2.44-2.033 28.264 5.287 32.534 24.4 1.627-0.203 3.253-1.017 4.473-2.237l1.627-2.033 3.253-0.407c1.627 3.050 4.067 5.693 6.913 7.727 1.423-0.407 4.067-2.237 7.727-5.897 1.423 1.22 3.253 4.677 5.897 10.573 0.813 2.033 1.83 3.863 3.050 5.693 8.947-1.423 15.047 2.643 18.097 12.2-2.847 5.897-4.677 9.353-5.49 10.167 1.423 1.627 3.050 3.050 4.88 4.473l0.407 7.523c0 1.017-1.22 3.050-3.66 6.1-2.033 2.237-3.050 4.88-3.050 7.93 3.253 1.627 5.49 2.44 6.507 2.237 0.813 2.237-0.203 4.473-2.847 7.117-3.253 3.050-4.27 5.897-2.847 8.947 2.237 4.473 3.253 7.523 3.253 8.743-12.403 4.27-17.69 13.014-16.267 26.027-10.573 2.033-19.724 8.337-25.417 17.487-1.83 0.407-7.93-1.22-18.3-4.677-1.22 1.22-4.88 2.44-10.98 4.067l-3.863-29.28-14.030-0.203 0.203-9.76-1.017-1.423v-4.88c-7.523 0.61-13.624-2.643-18.097-9.963-0.61-0.203-9.15 1.22-26.027 3.863-0.61-14.437-6.303-20.944-17.487-19.724l-0.203-16.267c-0.813-0.61-7.523-4.473-19.724-11.59 1.627-2.237 3.66-3.863 6.303-4.88l3.66-1.83c1.017-0.61-1.017-5.693-6.1-15.86 7.523-2.44 11.387-7.93 11.59-16.47l-0.813-4.473zM485.566 799.568c-1.83-0.203-32.94-13.014-92.925-38.634l-15.454-6.507c-6.913-2.847-9.963-7.93-9.353-15.25 0.203-1.423 4.27-10.573 12.403-27.857-22.367-9.353-43.311-18.097-62.831-26.434-14.437-6.1-24.807-10.573-31.517-13.217-23.79-9.76-38.431-17.894-43.921-24.4-2.033-7.523-2.237-13.217-0.61-16.877l6.71-15.047c5.897-13.42 10.573-23.384 13.42-29.89l5.49 0.203 416.839 178.936v2.237c0 0.407-4.677 10.573-13.827 30.5-9.963 21.35-19.927 30.094-29.484 25.824l-127.492-55.104c-7.523 21.757-16.674 32.33-27.45 31.517zM411.959 73.048l259.050-0.813c13.827 0 21.554 12.81 23.384 38.227 4.473 62.831 8.947 118.342 13.42 166.532 0.407 4.88 1.017 10.37 1.423 16.674 8.133 103.295 13.014 158.602 14.234 166.329l18.3 0.813 2.237 1.423c0.203 1.22 0.407 2.033 0.407 2.643l0.407 2.643-1.017 60.391c0 1.627-0.813 3.253-2.237 4.27l-438.189-4.473c-1.017 0-2.033-0.61-2.033-1.83v-0.407l1.22-69.134 22.57 0.407c1.423-8.133 6.1-40.871 14.030-98.211 19.52-140.708 30.907-222.653 34.364-245.63 4.067-27.044 10.98-40.464 20.944-40.261l17.487 0.407z" />
<glyph unicode="&#xe94f;" d="M403.622 721.284c-0.407 0-9.557 13.827-4.067 16.064l79.708 34.77h3.253c2.237 0 9.15-12.403 5.693-14.030l-83.571-37.007-1.017 0.203z" />
<glyph unicode="&#xe950;" d="M3.66 82.605c0-78.894 63.847-142.945 142.742-142.945h730.993c78.894 0 142.945 63.847 142.945 142.945v730.79c0 78.894-64.051 142.945-142.945 142.945h-730.79c-78.894 0-142.945-63.847-142.945-142.945v-730.79z" />
<glyph unicode="&#xe951;" d="M877.395-64h-730.993c-80.724 0-146.402 65.678-146.402 146.605v730.79c0 80.928 65.678 146.605 146.605 146.605h730.79c80.928 0 146.605-65.678 146.605-146.605v-730.79c0-80.928-65.678-146.605-146.605-146.605zM146.605 952.68c-76.861 0-139.285-62.424-139.285-139.285v-730.79c0-76.861 62.424-139.285 139.082-139.285h730.993c76.861 0 139.285 62.424 139.285 139.285v730.79c0 76.861-62.424 139.285-139.285 139.285h-730.79z" />
<glyph unicode="&#xe952;" d="M133.185 907.336c-21.147-3.050-38.634-12.2-54.901-28.467-12.607-13.42-21.35-30.094-25.010-48.191-1.627-9.15-1.83-67.304-2.033-378.205 0-235.463 0.407-372.105 1.22-380.238 1.017-12.2 4.473-23.994 10.167-34.77 12.81-25.214 39.041-44.734 66.491-49.411 7.117-1.017 103.701-1.22 388.168-1.017 356.041 0.407 379.222 0.61 386.542 2.643 31.72 9.557 56.527 34.16 66.084 65.881 2.237 7.523 2.44 27.45 2.847 387.965 0.203 411.349 0.61 387.762-6.71 406.062-9.76 23.79-31.314 44.124-56.731 53.274-7.32 2.237-14.844 3.863-22.367 4.473-16.877 1.83-742.38 1.627-753.766 0zM184.629 605.382c35.584-1.83 46.767-2.237 90.688-4.067 11.387-0.407 23.18-1.017 26.027-1.22s21.554-1.22 41.277-1.83 40.057-1.83 45.141-2.237c7.523-0.61 8.947-0.61 8.947 1.423s1.627 2.237 9.353 2.237 9.353-0.407 9.353-2.237 1.22-2.033 9.15-1.423c4.88 0.407 25.62 1.423 45.954 2.237s39.244 1.627 42.091 1.83c4.88 0.407 22.977 1.22 61.814 2.643 9.15 0.407 21.554 1.017 27.45 1.423s23.18 1.22 38.431 2.033c31.517 1.627 34.567 1.017 38.634-7.523 2.847-5.897 2.847-8.54 0-14.437-3.457-7.32-8.947-9.15-23.587-8.337-6.71 0.407-25.824 1.423-42.904 2.033-42.294 1.83-57.137 2.44-87.434 4.067-14.234 0.61-34.364 1.627-44.734 2.033s-27.654 1.22-38.634 1.627c-28.874 1.423-26.23 2.847-25.824-14.234l0.407-14.234 32.127-1.22 12.607-7.523c6.913-4.067 16.877-9.963 22.164-13.014l9.557-5.49h285.687l4.473 8.947c8.54 17.487 24.604 29.077 44.531 32.33 25.214 4.067 50.834-9.963 62.424-34.77 3.863-7.93 4.067-9.76 4.067-23.384 0-14.234-0.203-15.047-4.88-24.604-9.557-19.52-25.824-31.314-47.784-34.16-7.93-1.017-24.4 2.237-33.347 6.913-6.71 3.457-16.877 12.607-22.164 19.927l-2.643 4.067-19.927-4.473c-19.52-4.27-25.824-5.693-59.171-12.81-20.944-4.473-36.194-8.337-40.871-10.167-3.66-1.627-22.977-12.607-105.735-60.391-20.13-11.793-39.651-22.57-43.107-24.4-10.167-4.473-21.35-6.71-32.33-6.913h-8.337v-58.561l35.787-0.407c33.144-0.407 36.194-0.61 38.634-2.847 3.253-3.050 3.66-10.167 0.61-13.42-1.83-1.83-18.3-2.033-160.839-2.033h-158.805l-15.454 8.743c-20.74 11.793-23.18 14.844-17.284 22.367 4.473 5.49 9.15 4.677 24.4-4.473l13.217-7.93h30.297v58.561h-6.913c-10.37 0-23.587 2.44-30.094 5.287-2.033 1.017-4.27 1.83-6.303 2.643-1.627 0-44.124 29.28-46.971 32.33-6.1 6.913-9.353 15.657-9.557 24.807-0.61 8.337-0.203 10.573 3.050 16.877 2.033 4.27 4.88 8.133 8.337 11.387 4.067 3.253 30.907 19.317 72.388 42.904 2.44 1.423 11.793 6.913 20.334 11.997 24.807 14.437 27.654 15.657 41.277 15.657 12.81 0 8.337-1.83 43.717 19.114l11.387 6.71 32.127 1.22 0.407 14.437c0.203 9.15-0.203 14.234-1.017 14.437-1.22 0.203-2.44 0.203-3.66 0.203-3.050 0.203-53.681-1.83-61.814-2.44-3.253-0.203-14.844-0.813-26.027-1.423s-24.604-1.017-30.094-1.423-24.807-1.22-42.701-2.033-44.734-2.033-59.577-2.643c-31.72-1.83-34.364-1.017-39.041 7.93-2.44 4.88-2.643 6.1-1.22 10.37 2.237 6.71 8.133 11.387 15.25 12.2 0 0.61 17.080-0.203 37.21-1.22z" />
<glyph unicode="&#xe953;" d="M825.137 551.498c-7.727-2.44-14.844-6.913-20.334-13.014-6.913-8.337-6.303-8.337 15.25-8.337s25.824-1.017 29.28-7.93c2.847-5.897 2.643-12.607-0.61-18.3-2.847-4.88-6.1-5.897-30.907-11.387l-14.437-3.050 4.473-4.473c10.167-10.573 30.297-14.437 43.311-8.133 8.743 4.473 17.284 13.014 20.334 20.944 3.253 8.743 3.457 22.774 0.203 30.907-4.067 8.54-10.98 15.657-19.317 19.927-6.507 3.050-20.537 4.473-27.247 2.847zM251.933 490.091c-22.774-13.217-42.294-24.4-43.107-25.010-2.237-1.423-0.61-3.66 8.54-10.573 17.080-13.014 27.857-16.674 49.411-16.064l15.86 0.407 17.894 31.314c9.76 17.284 17.69 31.924 17.69 32.737s-2.237 2.033-5.083 2.44c-4.067 1.017-7.93 2.643-11.387 4.88-2.237 1.627-4.677 2.847-7.32 3.863-0.813-0.203-19.724-10.98-42.497-23.994zM340.181 500.461c-1.017-1.83-4.27-7.32-7.117-12.403s-10.573-18.097-16.877-29.077-11.387-19.927-11.387-20.334 22.57-0.61 50.021-0.61h49.817v65.271h-31.314c-31.11 0-31.314 0-33.144-2.847zM424.769 470.774v-32.737h48.191l5.897 4.473c3.253 2.237 13.827 9.76 23.18 16.267l17.284 11.997 0.203 16.47v16.267h-94.755v-32.737zM276.537 336.572v-29.28h182.799v58.764h-182.799v-29.484z" />
<glyph unicode="&#xe954;" d="M3.66 82.605c0-78.894 63.847-142.945 142.742-142.945h730.993c78.894 0 142.945 63.847 142.945 142.945v730.79c0 78.894-64.051 142.945-142.945 142.945h-730.79c-78.894 0-142.945-63.847-142.945-142.945v-730.79z" />
<glyph unicode="&#xe955;" d="M877.395-64h-730.993c-80.724 0-146.402 65.678-146.402 146.605v730.79c0 80.928 65.678 146.605 146.605 146.605h730.79c80.928 0 146.605-65.678 146.605-146.605v-730.79c0-80.928-65.678-146.605-146.605-146.605zM146.605 952.68c-76.861 0-139.285-62.424-139.285-139.285v-730.79c0-76.861 62.424-139.285 139.082-139.285h730.993c76.861 0 139.285 62.424 139.285 139.285v730.79c0 76.861-62.424 139.285-139.285 139.285h-730.79z" />
<glyph unicode="&#xe956;" d="M51.241 82.605c0-52.664 42.497-95.161 94.958-95.365h730.993c52.664 0 95.365 42.497 95.365 95.161v730.993c0 52.664-42.701 95.365-95.365 95.365h-730.586c-52.664 0-95.365-42.497-95.365-95.161v-730.993zM627.495 87.282l-78.488-14.844-16.674 89.671-46.564-79.708-41.481 6.507 77.471 132.168-11.183 57.747c-18.3 19.317-35.38 39.447-51.647 60.391l-123.832-272.064-50.427 41.074 94.348 293.21c6.71 19.724 7.117 19.927 11.793 27.857-10.573 10.98-17.284 25.824-17.284 47.987 0 13.014 3.863 43.107 16.47 80.521-23.18-4.473-42.497 3.050-58.561 27.857l79.504 175.682c28.264 2.033 47.377-7.727 58.764-22.774l-33.144-78.691c10.98 10.98 19.52 23.994 29.687 35.38 19.927 22.774 32.94 26.637 47.581 26.637 46.564 0 66.898-37.82 95.975-155.755l127.695-89.264-23.18-40.464-18.097 8.743-104.515-180.766 35.787-177.106zM565.884 717.624c-30.5 0-55.307 23.587-55.307 56.121 0 29.687 25.417 55.307 55.307 55.307 31.72 0 55.104-24.197 55.104-56.121 0.203-30.297-24.197-54.901-54.291-55.104-0.203-0.203-0.407-0.203-0.813-0.203zM577.271 313.392l86.214 147.825-99.635 49.004-14.64 30.5c-11.387-23.79-22.774-45.141-37.82-69.948 24.4-34.16 48.394-83.571 65.881-157.382z" />
<glyph unicode="&#xe957;" d="M3.66 82.605c0-78.894 63.847-142.945 142.742-142.945h730.993c78.894 0 142.945 63.847 142.945 142.945v730.79c0 78.894-64.051 142.945-142.945 142.945h-730.79c-78.894 0-142.945-63.847-142.945-142.945v-730.79z" />
<glyph unicode="&#xe958;" d="M877.395-64h-730.993c-80.724 0-146.402 65.678-146.402 146.605v730.79c0 80.928 65.678 146.605 146.605 146.605h730.79c80.928 0 146.605-65.678 146.605-146.605v-730.79c0-80.928-65.678-146.605-146.605-146.605zM146.605 952.68c-76.861 0-139.285-62.424-139.285-139.285v-730.79c0-76.861 62.424-139.285 139.082-139.285h730.993c76.861 0 139.285 62.424 139.285 139.285v730.79c0 76.861-62.424 139.285-139.285 139.285h-730.79z" />
<glyph unicode="&#xe959;" d="M51.241 80.369c-0.203-52.867 42.497-95.771 95.161-95.975h730.993c52.867 0.203 95.365 43.107 95.365 95.771v735.466c0.203 52.867-42.497 95.771-95.161 95.975h-730.993c-52.867-0.203-95.568-43.107-95.365-95.771v-735.466z" />
<glyph unicode="&#xe95a;" d="M657.995 653.776c39.447 4.473 59.374 42.701 57.544 68.931-2.847 42.091-45.954 65.678-78.691 56.934-79.301-20.944-51.444-133.998 21.147-125.865zM704.356 314.408l40.464-183.409 80.724 0.407-32.127 200.286c-27.857 175.479-57.544 281.62-89.061 318.627-4.677 0.61-7.727 0.61-9.15 0l-17.080-7.727c-3.457-1.423-15.86-2.847-37.414-4.27-9.963-17.894-17.284-31.517-21.96-40.667l-21.35-41.277c-9.963-19.317-34.974-37.007-75.234-53.274-49.411-19.927-88.248-29.28-84.384-35.787 7.93-13.42 24.604-51.037 24.197-54.087l118.138 35.99c23.994 8.54 41.074-7.523 51.444-47.987 7.727-30.297-110.005-262.507-108.785-270.437h84.588c39.041 79.301 75.641 160.839 87.841 183.409l9.15 0.203z" />
<glyph unicode="&#xe95b;" d="M383.288 140.556v165.109h96.178c-2.237 0-75.438 99.228-75.031 99.431l-205.979-0.407c1.423 0 26.027-36.804 63.644-99.025h60.594v-164.905l60.594-0.203zM787.927 17.131c-28.264 0-61.407 2.847-98.415 8.743l5.49 35.584c35.38-5.49 66.694-8.337 92.925-8.337 35.584 0 54.494 5.083 64.051 9.15l17.69-31.517-3.863-1.83c-17.894-7.727-44.327-11.793-77.878-11.793zM626.275 37.668c-17.487 3.66-35.99 4.27-55.511 4.88-31.314 1.017-63.847 2.237-97.601 15.047-4.067 1.627-8.54 2.643-12.81 3.457l6.303 35.584c6.71-1.017 13.217-2.847 19.52-5.287 28.060-10.573 57.544-11.59 86.011-12.607 20.13-0.61 41.074-1.423 61.407-5.49l-7.32-35.584zM286.297 42.141c-9.15 0.61-18.504 0.813-26.027 2.643-11.183 2.643-21.96 6.1-32.534 10.573l14.030 33.144c8.54-3.66 17.487-6.507 26.637-8.743 5.897-1.22 11.793-1.83 17.69-1.83 19.52 0 43.514 4.473 68.931 9.353 14.234 2.643 28.67 5.49 42.701 7.523l5.49-35.787c-13.624-2.033-27.45-4.677-41.074-7.117-27.45-4.88-53.071-9.76-75.844-9.76zM169.582 92.162c-56.324 49.004-81.944 117.935-81.944 132.168l-0.203 26.027 36.194 0.407 0.203-26.637c1.017-5.083 21.147-62.627 69.541-104.921l-23.79-27.044zM911.555 93.585l-34.567 9.76c6.1 21.757 10.573 51.037 13.217 89.671 0.203 3.050 0.407 6.1 0.407 9.353 0 15.454-2.44 34.364-7.32 59.374l35.38 7.117c5.693-27.857 8.133-48.394 8.133-66.491 0-4.067-0.203-8.133-0.407-11.997-3.253-40.871-8.133-72.591-14.844-96.788zM86.418 313.798v17.284c0 68.931 3.253 117.935 10.37 154.332l2.847 6.913 14.844-10.167 18.097-0.203c-6.913-37.21-9.963-85.401-9.963-151.079v-17.080h-36.194zM869.261 323.558c-4.27 19.317-8.947 42.294-11.793 65.068-2.237 18.504-3.253 37.007-3.050 55.511 0 17.284 0.813 34.567 1.83 51.851l35.99-2.237c-1.017-16.47-1.83-33.144-1.83-49.614-0.203-17.080 0.813-34.16 2.847-51.241 2.643-21.35 7.117-43.311 11.183-61.814l-35.177-7.523zM153.519 531.164l-30.704 18.91c15.657 25.417 35.38 46.971 52.867 65.068 16.47 17.284 32.534 34.364 47.174 50.021l13.42 14.437 26.434-24.604-13.42-14.437c-14.844-15.86-30.704-33.144-47.377-50.427-16.267-16.877-34.77-36.6-48.394-58.967zM897.525 556.581l-35.99 3.050c2.033 24.604 4.067 50.427 4.067 73.608 0 11.793-0.61 23.79-2.033 35.584-2.44 19.724-5.083 37.617-8.337 53.681l35.584 6.913c3.253-16.877 6.1-35.584 8.743-56.121 1.627-13.42 2.44-26.84 2.237-40.261-0.203-24.4-2.237-51.037-4.27-76.454zM305.817 699.73l-24.807 26.23 5.287 4.88c8.947 7.727 18.3 15.047 28.060 21.757 10.167 7.32 19.927 14.234 28.467 22.977l10.777 11.387c15.86 17.080 33.957 36.397 59.374 50.427l17.487-31.517c-20.537-11.387-35.584-27.654-50.427-43.514l-11.183-11.793c-10.573-10.98-22.164-19.317-33.144-27.247-8.743-5.897-16.877-12.403-24.807-19.317l-5.083-4.27zM838.354 778.624c-8.743 18.097-19.927 30.5-35.38 39.041-23.384 12.81-54.697 21.35-92.721 25.010l3.457 35.99c43.107-4.27 79.098-14.030 106.751-29.28 21.96-12.2 38.431-30.094 50.427-54.901l-32.534-15.86zM485.566 823.765l-7.93 35.177c32.94 7.523 99.025 20.13 170.802 21.757l0.813-36.194c-68.728-1.22-132.168-13.624-163.685-20.74z" />
<glyph unicode="&#xe95c;" d="M3.66 82.605c0-78.894 63.847-142.945 142.742-142.945h730.993c78.894 0 142.945 63.847 142.945 142.945v730.79c0 78.894-64.051 142.945-142.945 142.945h-730.79c-78.894 0-142.945-63.847-142.945-142.945v-730.79z" />
<glyph unicode="&#xe95d;" d="M877.395-64h-730.993c-80.724 0-146.402 65.678-146.402 146.605v730.79c0 80.928 65.678 146.605 146.605 146.605h730.79c80.928 0 146.605-65.678 146.605-146.605v-730.79c0-80.928-65.678-146.605-146.605-146.605zM146.605 952.68c-76.861 0-139.285-62.424-139.285-139.285v-730.79c0-76.861 62.424-139.285 139.082-139.285h730.993c76.861 0 139.285 62.424 139.285 139.285v730.79c0 76.861-62.424 139.285-139.285 139.285h-730.79z" />
<glyph unicode="&#xe95e;" d="M163.075 908.759h698.052c61.611 0 111.631-50.021 111.631-111.631v-698.052c0-61.611-50.021-111.631-111.631-111.631h-698.052c-61.611 0-111.631 50.021-111.631 111.631v698.052c0 61.611 49.817 111.631 111.631 111.631z" />
<glyph unicode="&#xe95f;" d="M427.209 349.382h48.191v-11.59h-48.191v11.59z" />
<glyph unicode="&#xe960;" d="M607.975 258.898c-2.44-4.677-5.287-9.353-8.337-13.624-36.397-48.597-86.824-47.784-125.458 5.693-20.74 28.67-45.954 37.617-77.878 39.447-29.28 1.627-57.951 5.897-82.148 25.62-23.18 18.91-36.194 60.797-27.45 89.671 9.76 32.33 33.957 50.427 68.321 54.697 18.707 2.44 36.6 8.54 54.901 13.217 23.79 6.1 46.971 14.437 71.168 18.097 41.887 6.303 74.014-12.607 90.485-50.834 6.1-14.030 9.76-29.28 14.844-43.717 7.32-21.147 13.827-42.701 23.18-63.034 13.624-29.687 14.437-45.141-1.627-75.234zM325.338 536.858c11.183 10.98 21.554 22.774 33.55 32.94 12.607 10.573 27.654 17.487 44.531 7.117 16.267-9.963 21.554-25.62 20.334-43.311-2.237-30.5-30.094-57.544-61.611-60.391-32.33-2.847-50.021 18.3-40.464 48.597 1.627 4.473 3.66 8.947 5.693 13.217l-2.033 1.83zM617.938 523.234c-12.2-10.573-22.774-23.587-36.804-30.907-21.554-11.387-45.547 2.643-48.801 27.044-4.067 31.11 10.37 55.104 33.55 73.608 12.81 10.167 28.264 6.913 41.481-2.643 14.844-10.777 19.114-26.027 15.86-42.701-1.423-7.32-5.287-14.030-8.133-21.147l2.847-3.253zM447.339 572.442c15.657 27.857 40.057 40.871 60.797 31.11 19.52-8.947 26.637-40.057 13.014-66.898-6.303-12.2-16.064-26.84-27.857-30.907-13.014-4.473-32.534-2.237-45.141 4.677-7.32 4.067-8.54 22.774-8.947 34.77-0.407 9.15 5.083 18.3 8.133 27.247zM591.911 479.72c8.54 11.59 14.030 18.504 19.114 25.62 8.947 12.81 22.977 19.317 36.194 11.59 9.963-5.897 19.724-19.114 21.757-30.297 5.897-31.314-6.303-57.341-33.55-73.608-8.947-5.287-24.604-8.133-32.94-3.863s-14.64 18.504-15.454 28.874c-1.22 15.25 3.253 30.704 4.88 41.684zM625.868 384.763c9.557 10.777 18.097 22.57 29.077 31.72 13.217 11.183 30.907 5.083 38.024-11.183 12.2-28.060 0-71.574-26.434-86.418-7.117-4.067-21.35-5.287-27.044-1.017-9.15 6.913-17.284 18.91-19.317 29.89-2.033 11.387 3.457 23.994 5.693 37.007zM627.495 601.519l-43.514 15.86 69.134 66.288 7.727-5.287-33.347-76.861zM457.709 666.383l-38.837-76.454-46.767 10.777 79.301 71.168 6.303-5.49zM526.844 616.566l-44.124 5.083c18.707 30.5 46.971 48.191 78.691 63.237l-34.567-68.321zM703.339 615.346c3.253-39.854-8.54-68.728-26.84-97.195l-29.077 16.47c17.487 25.417 34.974 50.427 55.917 80.724zM726.113 511.441c-4.677-29.89-9.353-59.781-14.64-92.518l-32.94 14.64 40.057 79.098 7.523-1.22z" />
<glyph unicode="&#xe961;" d="M512 843.692c-218.586 0-395.692-177.106-395.692-395.692s177.106-395.692 395.692-395.692 395.692 177.106 395.692 395.692-177.106 395.692-395.692 395.692zM174.259 448c-1.017 78.284 26.434 154.535 77.268 214.113l473.976-476.213c-60.187-49.411-135.625-76.251-213.503-76.251-186.459 0-337.741 151.892-337.741 338.351zM773.083 233.074l-473.976 476.62c60.187 49.207 135.422 75.844 213.096 75.844 186.459 0 338.351-151.282 338.351-337.741-0.203-78.284-27.45-154.332-77.471-214.723z" />
<glyph unicode="&#xe962;" d="M512 51.292c-218.79 0-396.708 177.919-396.708 396.708s177.919 396.708 396.708 396.708 396.708-177.919 396.708-396.708-177.919-396.708-396.708-396.708zM512 842.675c-217.569 0-394.675-177.106-394.675-394.675s177.106-394.675 394.675-394.675 394.675 177.106 394.675 394.675-177.106 394.675-394.675 394.675zM512 108.632c-186.866 0-338.758 152.299-338.758 339.368 0 58.154 14.844 115.292 43.107 166.125 9.963 17.284 21.35 33.55 34.364 48.801l0.813 0.813 0.813-0.813 474.79-477.026-0.813-0.813c-60.594-49.207-136.235-76.251-214.316-76.454zM251.73 660.689c-12.403-14.844-23.587-30.704-33.347-47.581-28.264-50.427-42.904-107.158-42.904-165.109 0-185.849 151.079-337.131 336.724-337.131 77.268 0 152.095 26.637 212.079 75.234l-472.553 474.586zM773.083 231.651l-0.813 0.813-474.79 477.433 0.813 0.61c60.391 49.004 135.828 76.048 213.706 76.048 187.069 0 339.368-151.892 339.368-338.758-0.203-78.691-27.45-154.739-77.471-215.536l-0.813-0.61zM300.531 709.693l472.349-475.196c49.207 60.187 76.251 135.625 76.251 213.503 0 185.646-151.282 336.724-337.131 336.724-76.861-0.203-151.485-26.637-211.469-75.031z" />
<glyph unicode="&#xe963;" d="M3.66 82.605c0-78.894 63.847-142.945 142.742-142.945h730.993c78.894 0 142.945 63.847 142.945 142.945v730.79c0 78.894-64.051 142.945-142.945 142.945h-730.79c-78.894 0-142.945-63.847-142.945-142.945v-730.79z" />
<glyph unicode="&#xe964;" d="M877.395-64h-730.993c-80.724 0-146.402 65.678-146.402 146.605v730.79c0 80.928 65.678 146.605 146.605 146.605h730.79c80.928 0 146.605-65.678 146.605-146.605v-730.79c0-80.928-65.678-146.605-146.605-146.605zM146.605 952.68c-76.861 0-139.285-62.424-139.285-139.285v-730.79c0-76.861 62.424-139.285 139.082-139.285h730.993c76.861 0 139.285 62.424 139.285 139.285v730.79c0 76.861-62.424 139.285-139.285 139.285h-730.79z" />
<glyph unicode="&#xe965;" d="M51.241 82.605c0-52.664 42.497-95.161 95.161-95.365h730.993c52.664 0 95.365 42.701 95.365 95.161v730.993c0 52.664-42.701 95.365-95.365 95.365h-730.79c-52.664 0-95.365-42.701-95.365-95.161v-730.993zM241.563 202.573h61.611l-16.267 60.594h-29.484l-15.86-60.594zM130.338 79.555v19.52h47.174l21.554 80.114h-68.321v43.514h52.461v-19.52h22.57l15.047 60.594h-31.11v24.4h162.669v-24.4h-31.314l16.674-60.594h25.010v19.52h51.647v-43.107h-70.558l21.757-81.131h284.467c8.54 24.604 12.607 50.631 12.2 76.658 0 26.434-4.27 79.301-19.724 151.689-88.451-72.184-139.895-91.095-177.512-98.211 35.99 44.327 72.388 121.595 82.554 246.443-21.35-8.947-43.921-14.234-67.101-15.86 36.397 47.377 68.728 124.035 68.728 254.78 0 34.16-2.643 68.321-4.473 102.278 28.467-47.377 47.377-99.635 75.641-147.215 45.344-75.438 104.718-133.388 146.199-159.822-5.49-0.407-10.98-0.61-16.674-0.61-20.334 0.407-40.464 2.44-60.594 6.1 89.671-118.342 146.605-137.455 193.983-140.912-32.33-17.487-68.728-26.84-105.531-26.84-19.724 0-39.447 3.66-57.951 10.98 3.863-148.232 14.437-196.016 33.957-259.457h139.082v-19.114l-762.51 0.203zM214.519 98.262h116.918l-21.757 80.928h-74.218l-20.944-80.928z" />
<glyph unicode="&#xe966;" d="M3.66 82.605c0-78.894 63.847-142.945 142.742-142.945h730.993c78.894 0 142.945 63.847 142.945 142.945v730.79c0 78.894-64.051 142.945-142.945 142.945h-730.79c-78.894 0-142.945-63.847-142.945-142.945v-730.79z" />
<glyph unicode="&#xe967;" d="M877.395-64h-730.993c-80.724 0-146.402 65.678-146.402 146.605v730.79c0 80.928 65.678 146.605 146.605 146.605h730.79c80.928 0 146.605-65.678 146.605-146.605v-730.79c0-80.928-65.678-146.605-146.605-146.605zM146.605 952.68c-76.861 0-139.285-62.424-139.285-139.285v-730.79c0-76.861 62.424-139.285 139.082-139.285h730.993c76.861 0 139.285 62.424 139.285 139.285v730.79c0 76.861-62.424 139.285-139.285 139.285h-730.79z" />
<glyph unicode="&#xe968;" d="M51.241 82.605c0-52.664 42.497-95.161 94.958-95.365h730.993c52.664 0 95.365 42.497 95.365 95.161v730.993c0 52.664-42.701 95.365-95.365 95.365h-730.586c-52.664 0-95.365-42.497-95.365-95.161v-730.993zM819.037 195.863h-78.488l-63.441 221.433-339.571-0.203-66.694-220.416h-84.181l67.304 220.62h-123.628l0.203 74.828h150.875l45.344 131.558h-85.808v73.404l531.724 0.61v-74.218h-72.998l35.38-131.355h157.585v-75.031l-137.252-0.813 63.644-220.416zM654.742 491.107l-35.38 132.168h-215.333l-38.227-132.168h288.94z" />
<glyph unicode="&#xe969;" d="M3.66 82.605c0-78.894 63.847-142.945 142.742-142.945h730.993c78.894 0 142.945 63.847 142.945 142.945v730.79c0 78.894-64.051 142.945-142.945 142.945h-730.79c-78.894 0-142.945-63.847-142.945-142.945v-730.79z" />
<glyph unicode="&#xe96a;" d="M877.395-64h-730.993c-80.724 0-146.402 65.678-146.402 146.605v730.79c0 80.928 65.678 146.605 146.605 146.605h730.79c80.928 0 146.605-65.678 146.605-146.605v-730.79c0-80.928-65.678-146.605-146.605-146.605zM146.605 952.68c-76.861 0-139.285-62.424-139.285-139.285v-730.79c0-76.861 62.424-139.285 139.082-139.285h730.993c76.861 0 139.285 62.424 139.285 139.285v730.79c0 76.861-62.424 139.285-139.285 139.285h-730.79z" />
<glyph unicode="&#xe96b;" d="M51.241 82.605c0-52.664 42.497-95.161 94.958-95.365h730.993c52.664 0 95.365 42.497 95.365 95.161v730.993c0 52.664-42.701 95.365-95.365 95.365h-730.586c-52.664 0-95.365-42.497-95.365-95.161v-730.993zM281.824 525.878l-150.062-29.687v44.327l762.51 142.335v-44.124l-538.434-98.008v-295.651h510.373v-32.737h-584.388v313.544zM475.806 400.216h197.643v-16.267h-55.917v-0.813l23.384-49.004v-0.813h81.741v-16.267h-74.014v-0.813l26.434-57.747h-27.247l-24.197 57.544v0.813h-96.381l-24.197-58.357h-28.874l26.434 57.544v0.813h-74.624v16.267h82.554l22.57 49.817v0.813h-55.307v16.47zM533.35 332.098h81.741v0.813l-22.57 49.004v0.813h-25.62c-3.863 0.203-7.727-1.22-10.777-3.66-2.237-3.66-4.067-7.523-5.693-11.59l-5.49-11.387-5.693-11.59-5.693-11.387-0.203-1.017zM674.669 349.382h47.377v-11.59h-47.377v11.59zM427.412 349.382h48.394v-11.59h-48.191l-0.203 11.59z" />
<glyph unicode="&#xe96c;" d="M3.66 82.605c0-78.894 63.847-142.945 142.742-142.945h730.993c78.894 0 142.945 63.847 142.945 142.945v730.79c0 78.894-64.051 142.945-142.945 142.945h-730.79c-78.894 0-142.945-63.847-142.945-142.945v-730.79z" />
<glyph unicode="&#xe96d;" d="M877.395-64h-730.993c-80.724 0-146.402 65.678-146.402 146.605v730.79c0 80.928 65.678 146.605 146.605 146.605h730.79c80.928 0 146.605-65.678 146.605-146.605v-730.79c0-80.928-65.678-146.605-146.605-146.605zM146.605 952.68c-76.861 0-139.285-62.424-139.285-139.285v-730.79c0-76.861 62.424-139.285 139.082-139.285h730.993c76.861 0 139.285 62.424 139.285 139.285v730.79c0 76.861-62.424 139.285-139.285 139.285h-730.79z" />
<glyph unicode="&#xe96e;" d="M51.241 82.605c0-52.664 42.497-95.161 94.958-95.365h730.993c52.664 0 95.365 42.497 95.365 95.161v730.993c0 52.664-42.701 95.365-95.365 95.365h-730.586c-52.664 0-95.365-42.497-95.365-95.161v-730.993zM777.76 743.651l-1.83-11.387c-3.050-19.927-45.547-31.314-58.561-2.033-18.097 40.464 44.734 68.728 59.781 22.57 3.863 0.203 7.727 0.407 11.387 1.017 1.017 4.88-3.863 6.1-6.913 10.98l21.757 0.61-6.1-11.387 22.977 2.643c2.237-2.237 3.050-4.067 2.643-5.49-3.253-3.457-11.387-5.287-24.197-5.49l6.71-11.183h-19.724c1.017 0.813 2.44 4.473 4.27 10.167-4.067-0.203-8.133-0.407-12.2-1.017zM889.595 520.591l-56.731 24.197c-5.897-8.133-12.2-16.064-19.317-23.18 42.701-35.38 66.491-55.511 70.964-60.187 25.010-25.417-3.050-49.817-23.79-37.617-1.017 0.61-14.234 11.997-39.651 34.16-1.627 1.423-4.27 3.66-7.93 6.71-30.5 25.824-46.361 39.447-47.784 40.871-8.947 11.387-6.913 23.994 6.1 37.82l50.834 54.901-40.261 29.077-24.197-62.221-3.66-10.37c-6.507-18.504-34.567-16.47-38.227 4.27-3.253 19.317 52.054 150.875 52.664 151.892 8.743 15.25 33.55 18.91 45.344 10.573 3.457-2.44 18.3-21.96 44.531-58.154l30.907-42.091 0.203-100.651zM171.819 507.577c-12.403 1.22-21.554 7.523-27.45 19.317-14.234 27.857 16.267 60.391 45.344 45.547 34.364-17.487 19.52-68.524-17.894-64.864zM349.941 320.102v29.077l373.122 153.722v-30.297l-373.122-152.502zM221.23 415.67l-16.877-50.631c30.5-4.88 59.171-10.777 86.418-17.69 18.707-4.88 25.214-15.047 19.724-37.82-4.067-17.69-6.507-27.857-7.117-30.704-12.403-53.884-18.707-81.131-18.707-81.741-10.167-36.397-46.564-22.977-48.597-0.813 0 1.22 21.554 95.568 25.62 108.581l-109.191 21.554c-14.437 5.897-21.554 12.403-21.554 19.724v130.135c0 7.32 16.47 30.907 46.361 21.147 3.66-1.22 132.778-88.654 133.388-89.061 24.807-19.724 7.523-46.361-13.827-41.481l-75.641 48.801zM509.56 119.409v206.386c0 9.963 4.88 18.707 14.844 26.434 27.45 21.147 60.594-2.847 60.594-26.434v-206.386h-75.438z" />
<glyph unicode="&#xe96f;" d="M3.66 82.605c0-78.894 63.847-142.945 142.742-142.945h730.993c78.894 0 142.945 63.847 142.945 142.945v730.79c0 78.894-64.051 142.945-142.945 142.945h-730.79c-78.894 0-142.945-63.847-142.945-142.945v-730.79z" />
<glyph unicode="&#xe970;" d="M877.395-64h-730.993c-80.724 0-146.402 65.678-146.402 146.605v730.79c0 80.928 65.678 146.605 146.605 146.605h730.79c80.928 0 146.605-65.678 146.605-146.605v-730.79c0-80.928-65.678-146.605-146.605-146.605zM146.605 952.68c-76.861 0-139.285-62.424-139.285-139.285v-730.79c0-76.861 62.424-139.285 139.082-139.285h730.993c76.861 0 139.285 62.424 139.285 139.285v730.79c0 76.861-62.424 139.285-139.285 139.285h-730.79z" />
<glyph unicode="&#xe971;" d="M51.241 82.605c0-52.664 42.497-95.161 95.161-95.365h730.993c52.664 0 95.365 42.701 95.365 95.161v730.993c0 52.664-42.701 95.365-95.365 95.365h-730.79c-52.664 0-95.365-42.701-95.365-95.161v-730.993z" />
<glyph unicode="&#xe972;" d="M528.877 560.648l6.507 2.237c5.287 1.83 9.557 1.627 12.81-0.813 2.643-2.033 5.693-3.863 8.743-5.287l3.863 2.847c9.963 7.523 21.147 6.1 33.55-4.067l10.167-8.337c2.44-2.033 28.264 5.287 32.534 24.4 1.627-0.203 3.253-1.017 4.473-2.237l1.627-2.033 3.253-0.407c1.627 3.050 4.067 5.693 6.913 7.727 1.423-0.407 4.067-2.237 7.727-5.897 1.423 1.017 3.457 4.677 5.897 10.573 0.813 2.033 1.83 3.863 3.050 5.693 8.947-1.423 15.047 2.643 18.097 12.2-2.847 5.897-4.677 9.353-5.693 10.167 1.423 1.627 3.050 3.050 4.88 4.473l0.407 7.523c0 1.017-1.22 3.050-3.66 6.1-2.033 2.237-3.050 4.88-3.050 7.93 3.253 1.627 5.49 2.44 6.507 2.237 0.813 2.237-0.203 4.473-2.847 7.117-3.253 3.050-4.27 5.897-2.847 8.947 2.237 4.473 3.253 7.523 3.050 8.947-12.403 4.27-17.69 13.014-16.267 26.027-10.573 2.033-19.724 8.337-25.417 17.487-1.83 0.407-7.93-1.22-18.3-4.677-1.22 1.22-4.88 2.44-10.777 4.067l-3.863-29.28-14.030-0.203 0.203-9.76-1.017-1.423v-4.88c-7.523 0.61-13.624-2.643-18.097-9.963-0.61-0.203-9.15 1.22-26.027 3.863-0.61-14.437-6.303-20.944-17.487-19.724l-0.203-16.267c-0.813-0.61-7.523-4.473-19.724-11.59 1.627-2.237 3.66-3.863 6.303-4.88l3.66-1.83c1.017-0.61-1.017-5.693-6.303-15.86 7.523-2.44 11.387-7.93 11.59-16.47l-0.203-4.677zM485.77 799.568c-1.83-0.203-32.94-13.014-92.925-38.634l-15.454-6.507c-6.913-2.847-9.963-7.93-9.353-15.25 0.203-1.423 4.27-10.573 12.403-27.857-22.367-9.353-43.311-18.097-62.831-26.434-14.437-6.1-24.807-10.573-31.517-13.217-23.79-9.76-38.431-17.894-43.921-24.4-2.033-7.523-2.237-13.217-0.61-16.877l6.71-15.047 13.42-29.89h5.49l416.839 178.936v2.033c0 0.407-4.677 10.573-13.827 30.5-9.963 21.554-19.724 30.094-29.28 26.027l-127.492-55.104c-7.523 21.757-16.877 32.534-27.654 31.72zM412.162 72.845l259.050-0.813c13.827 0 21.554 12.81 23.384 38.227 4.473 62.831 8.947 118.342 13.42 166.532 0.407 4.88 1.017 10.37 1.423 16.674 8.133 103.091 13.014 158.602 14.234 166.329l18.3 0.813 2.237 1.423c0.203 1.22 0.407 2.033 0.407 2.643l0.407 2.643-1.017 60.391c0 1.627-0.813 3.253-2.237 4.27l-438.189-4.473c-1.017 0.203-2.033-0.61-2.237-1.627v-0.61l1.22-69.134 22.57 0.407c1.423-8.133 6.1-40.871 14.030-98.211 19.52-140.708 31.11-222.45 34.567-245.63 3.863-27.044 10.98-40.464 20.944-40.261l17.487 0.407z" />
<glyph unicode="&#xe973;" d="M532.74 232.667l35.584 62.424-0.203-28.264 46.767 0.203-38.227 66.288 59.781 34.567 23.18-40.464c6.1-10.777 7.93-19.52 7.93-26.027 0.203-7.523-1.83-15.047-5.49-21.554l-39.041-67.101c-5.897-10.167-13.014-14.64-27.044-14.64l-27.45 0.407-0.203-27.857-35.584 62.017zM439.816 268.048h76.454v-69.134h-46.564c-21.35 0-35.38 9.15-42.497 21.554l-38.634 67.304c-2.847 4.27-4.27 9.353-4.27 14.437 0.407 5.693 2.033 11.387 5.287 16.267l14.234 23.587-23.994 14.234 71.574-0.203 35.99-62.017-24.4 14.234-23.18-40.261zM486.786 354.872l-59.171 35.584 23.994 39.854c10.573 18.097 25.824 25.62 40.261 25.214l77.471-1.627c11.793-0.203 19.114-4.473 25.824-16.674l13.014-24.197 24.604 13.217-37.007-61.407-71.574 1.017 24.807 13.624-22.977 40.871-39.244-65.474zM403.825 721.284c-0.407 0-9.557 13.827-4.067 16.064l79.708 34.77h3.253c2.237 0 9.15-12.403 5.693-13.827l-83.571-37.007h-1.017z" />
<glyph unicode="&#xe974;" d="M3.66 82.605c0-78.894 63.847-142.945 142.742-142.945h730.993c78.894 0 142.945 63.847 142.945 142.945v730.79c0 78.894-64.051 142.945-142.945 142.945h-730.79c-78.894 0-142.945-63.847-142.945-142.945v-730.79z" />
<glyph unicode="&#xe975;" d="M877.395-64h-730.993c-80.724 0-146.402 65.678-146.402 146.605v730.79c0 80.928 65.678 146.605 146.605 146.605h730.79c80.928 0 146.605-65.678 146.605-146.605v-730.79c0-80.928-65.678-146.605-146.605-146.605zM146.605 952.68c-76.861 0-139.285-62.424-139.285-139.285v-730.79c0-76.861 62.424-139.285 139.082-139.285h730.993c76.861 0 139.285 62.424 139.285 139.285v730.79c0 76.861-62.424 139.285-139.285 139.285h-730.79z" />
<glyph unicode="&#xe976;" d="M51.241 82.605c0-52.664 42.497-95.161 95.161-95.365h730.993c52.664 0 95.365 42.701 95.365 95.161v730.993c0 52.664-42.701 95.365-95.365 95.365h-730.79c-52.664 0-95.365-42.701-95.365-95.161v-730.993zM778.777 384.763v-283.654c0-18.707-18.707-35.177-37.007-34.364-15.86 0.813-32.94 16.064-33.957 37.414v470.316h-14.437v-163.482c0-13.827-12.607-27.45-28.060-27.45-14.64 0-27.247 12.607-27.247 25.62v201.709c0 45.141 33.754 76.251 73.608 76.251h145.589c41.074 0 75.844-34.77 75.844-75.844v-199.066c0-18.3-12.2-28.874-27.247-28.874-15.047-0.407-27.654 11.59-28.060 26.637v164.499h-13.624v-473.163c0-18.504-17.080-34.364-34.974-34.364-19.52 0-35.584 17.487-35.584 33.957v283.857h-14.844zM722.656 766.424c0.61 34.77 29.28 62.424 64.051 61.814s62.424-29.28 61.814-64.051c-0.61-34.567-29.077-62.221-63.644-61.814-33.55 0-62.221 27.45-62.221 64.051zM492.886 66.745v762.51h72.794v-762.51h-72.794zM120.782 310.748l83.774 288.94h-15.25l-49.004-165.922c-2.847-10.98-13.014-18.707-24.4-18.707-13.624-0.203-25.010 10.573-25.214 24.4 0 2.643 0.407 5.287 1.017 7.727l53.681 187.272c8.133 28.67 39.854 52.664 71.981 52.664h102.481c27.45 0 60.391-24.197 68.321-51.444l54.901-186.052c4.473-13.827-3.253-28.874-17.080-33.144-2.44-0.813-5.083-1.22-7.727-1.22-11.183 0-20.537 6.1-24.604 20.74l-47.987 163.685h-16.267l84.181-288.534h-79.098v-215.739c0-16.47-12.403-28.67-28.874-28.67-16.267-0.407-29.687 12.403-30.094 28.467v215.943h-14.030v-214.723c0.203-16.267-12.81-29.484-28.874-29.687h-1.017c-16.674 0-30.094 14.030-30.094 27.857v216.146h-80.724zM204.149 766.424c0.407 34.567 28.874 62.424 63.441 62.017s62.424-28.874 62.017-63.441c-0.407-34.364-28.264-62.017-62.627-62.017-34.567-0.203-62.831 27.654-63.034 62.221 0.203 0.407 0.203 0.813 0.203 1.22z" />
<glyph unicode="&#xe977;" d="M3.66 82.605c0-78.894 63.847-142.945 142.742-142.945h730.993c78.894 0 142.945 63.847 142.945 142.945v730.79c0 78.894-64.051 142.945-142.945 142.945h-730.79c-78.894 0-142.945-63.847-142.945-142.945v-730.79z" />
<glyph unicode="&#xe978;" d="M877.395-64h-730.993c-80.724 0-146.402 65.678-146.402 146.605v730.79c0 80.928 65.678 146.605 146.605 146.605h730.79c80.928 0 146.605-65.678 146.605-146.605v-730.79c0-80.928-65.678-146.605-146.605-146.605zM146.605 952.68c-76.861 0-139.285-62.424-139.285-139.285v-730.79c0-76.861 62.424-139.285 139.082-139.285h730.993c76.861 0 139.285 62.424 139.285 139.285v730.79c0 76.861-62.424 139.285-139.285 139.285h-730.79z" />
<glyph unicode="&#xe979;" d="M51.241 82.605c0-52.664 42.497-95.161 95.161-95.365h730.993c52.664 0 95.365 42.497 95.365 95.161v730.993c0 52.664-42.701 95.365-95.365 95.365h-730.79c-52.664 0-95.365-42.497-95.365-95.161v-730.993zM776.947 755.851c3.050 2.44 6.913 5.49 11.183 8.947 7.117 5.49 13.014 10.167 17.284 14.030h-5.287c-3.863-3.050-8.337-6.913-13.624-10.98-6.303-4.88-11.387-8.947-14.844-11.997h5.287zM821.884 791.434c2.237 1.423 4.88 3.050 7.93 5.083 5.083 3.050 9.15 5.693 12.2 7.93l-3.457 0.407c-2.643-1.83-5.897-3.863-9.557-6.1-4.473-2.847-7.93-5.083-10.37-6.71l3.253-0.61zM851.164 808.921c1.627 1.423 3.66 3.050 6.1 4.88 3.863 3.050 7.117 5.49 9.353 7.727h-2.847c-2.033-1.627-4.473-3.66-7.523-6.1-3.457-2.643-6.303-4.88-8.133-6.507h3.050zM726.316 711.93c3.050 2.44 6.913 5.49 11.183 8.947 7.117 5.49 13.014 10.167 17.284 14.030h-5.287c-3.863-3.253-8.337-6.913-13.624-10.98-6.303-4.88-11.387-8.947-14.844-11.997h5.287zM704.763 676.143c-1.22-3.863-2.237-7.523-3.253-11.387-2.033-8.133-3.457-16.267-4.067-24.604l4.067 0.61c0.61 7.32 2.033 14.64 3.863 21.757 1.22 4.677 2.847 9.557 4.27 14.234l-4.88-0.61zM731.806 536.858c-1.22 15.657-4.473 30.907-9.963 45.547-0.203 0.813-0.203 1.22-0.407 1.83l-6.1 2.237c0.407-2.237 1.22-4.473 2.033-6.71 4.677-13.217 7.93-27.044 9.15-41.074l5.287-1.83zM677.719 432.14c13.827 10.167 26.637 21.554 38.431 34.364 2.44 2.643 4.677 5.693 6.507 8.947h-8.133c-1.423-1.627-2.44-3.050-3.457-4.473-10.573-11.997-25.417-25.010-44.937-38.634l11.59-0.203zM564.461 363.616c-20.13-14.64-39.447-29.077-57.137-43.107h10.98c18.097 14.030 37.617 28.467 58.154 43.107h-11.997zM426.396 251.984c-15.454-14.030-30.907-28.060-46.564-43.107h9.963c15.86 15.047 31.11 29.484 46.971 43.107h-10.37zM316.797 139.946c-3.050-4.067-5.897-8.133-8.54-11.997-6.913-10.167-13.42-20.537-19.114-31.11h7.93c5.083 9.353 10.98 18.3 17.080 27.044 3.457 5.49 7.117 10.573 11.387 16.064h-8.743zM757.223 427.666c-16.47-15.25-33.55-29.484-50.224-44.124-99.431-86.824-205.166-178.122-206.386-311.714-64.458-1.423-193.779-4.27-243.19-4.27h-140.708c7.93 22.774 17.69 44.937 29.28 66.288 27.45 49.614 64.051 90.485 111.428 126.475 103.295 78.284 182.189 127.288 293.007 182.392 110.208 49.614 136.642 93.331 91.501 165.312-3.253 5.083-5.693 10.37-7.32 16.064-15.25 51.851 33.144 103.091 71.778 130.338 39.854 27.654 86.824 44.734 130.135 69.948 2.237 1.22 4.677 2.643 6.913 4.067l64.864 0.203c-1.83-1.423-3.863-3.050-5.897-4.473-42.904-30.5-75.234-46.564-114.478-84.791-7.117-6.913-14.234-13.827-21.147-20.944-31.72-33.347-45.547-60.187-6.303-94.551 13.014-11.387 27.654-23.18 35.38-40.261 29.077-65.068 11.997-109.191-38.634-155.959z" />
<glyph unicode="&#xe97a;" d="M3.66 82.605c0-78.894 63.847-142.945 142.742-142.945h730.993c78.894 0 142.945 63.847 142.945 142.945v730.79c0 78.894-64.051 142.945-142.945 142.945h-730.79c-78.894 0-142.945-63.847-142.945-142.945v-730.79z" />
<glyph unicode="&#xe97b;" d="M877.395-64h-730.993c-80.724 0-146.402 65.678-146.402 146.605v730.79c0 80.928 65.678 146.605 146.605 146.605h730.79c80.928 0 146.605-65.678 146.605-146.605v-730.79c0-80.928-65.678-146.605-146.605-146.605zM146.605 952.68c-76.861 0-139.285-62.424-139.285-139.285v-730.79c0-76.861 62.424-139.285 139.082-139.285h730.993c76.861 0 139.285 62.424 139.285 139.285v730.79c0 76.861-62.424 139.285-139.285 139.285h-730.79z" />
<glyph unicode="&#xe97c;" d="M51.241 82.605c0-52.664 42.497-95.161 95.161-95.365h730.993c52.664 0 95.365 42.701 95.365 95.161v730.993c0 52.664-42.701 95.365-95.365 95.365h-730.79c-52.664 0-95.365-42.701-95.365-95.161v-730.993zM786.707 212.74l-99.431 80.928 205.979 15.86-106.548-96.788zM704.763 571.425c43.514 0 78.894-35.177 78.894-78.691s-35.177-78.894-78.691-78.894c-43.514 0-78.894 35.177-78.894 78.691s35.38 78.691 78.691 78.894zM869.058 330.675l5.693-5.897c-6.303-51.241-74.014-56.934-91.095-8.133-14.844-48.801-77.471-50.834-95.568-3.050-20.13-43.311-75.438-44.531-97.195-1.83-20.334-44.734-78.894-45.954-99.635-1.017-19.927-42.904-76.861-42.294-98.821-1.423-17.894-44.531-76.454-42.497-91.908 2.847-17.487-46.767-80.114-44.531-97.398 1.423-10.37-28.874-37.82-41.277-66.288-29.28l0.407 30.094c19.927-4.88 47.377-8.133 66.491 28.060 23.18-38.837 72.388-39.244 97.805-2.847 22.164-38.431 75.031-36.6 94.755 3.050 23.18-39.447 74.421-40.057 100.245-3.050 27.45-33.144 72.998-31.72 96.788 4.677 19.317-41.684 75.844-38.634 95.161 1.627 24.4-36.804 74.014-35.99 96.585 2.033 22.774-38.024 68.118-34.364 83.978-17.284zM440.629 682.853l230.38-315.781c-23.18-32.33-67.914-28.874-81.741 9.76-16.877-48.597-82.148-48.394-94.551 2.033-17.284-51.037-78.284-51.037-98.415-2.237-17.284-48.394-79.301-46.564-97.601 0.407-16.674-46.767-77.064-45.751-94.551 0-20.13-44.531-51.241-38.431-73.404-28.264l339.978 167.346-56.121 77.471-182.799-56.324-13.42 34.567 222.246 111.021z" />
<glyph unicode="&#xe97d;" d="M3.66 82.605c0-78.894 63.847-142.945 142.742-142.945h730.993c78.894 0 142.945 63.847 142.945 142.945v730.79c0 78.894-64.051 142.945-142.945 142.945h-730.79c-78.894 0-142.945-63.847-142.945-142.945v-730.79z" />
<glyph unicode="&#xe97e;" d="M877.395-64h-730.993c-80.724 0-146.402 65.678-146.402 146.605v730.79c0 80.928 65.678 146.605 146.605 146.605h730.79c80.928 0 146.605-65.678 146.605-146.605v-730.79c0-80.928-65.678-146.605-146.605-146.605zM146.605 952.68c-76.861 0-139.285-62.424-139.285-139.285v-730.79c0-76.861 62.424-139.285 139.082-139.285h730.993c76.861 0 139.285 62.424 139.285 139.285v730.79c0 76.861-62.424 139.285-139.285 139.285h-730.79z" />
<glyph unicode="&#xe97f;" d="M723.266 254.627c9.557-1.627 70.151-0.203 96.381 17.894 78.081 53.274 67.304 177.716-22.977 212.689-92.518 35.787-154.129-32.127-168.362-74.828-24.807-75.438 31.11-144.775 94.958-155.755zM51.241 81.792c0-52.664 42.497-95.161 94.958-95.365h730.993c52.664 0 95.365 42.497 95.365 95.161v730.993c0 52.664-42.701 95.365-95.365 95.365h-730.586c-52.664 0-95.365-42.701-95.365-95.161v-730.993zM723.469 234.497c-67.304 8.133-117.732 74.828-118.545 122.815 0 6.913-0.61 14.030-1.627 20.944-3.050 4.473-19.927 5.287-37.617 5.287-18.504 38.431-30.094 67.508-29.077 77.064 1.423 11.59 1.22 23.18-0.61 34.77-1.017 6.303-16.877 4.88-42.091 2.847l-2.237-41.277-19.927-71.574-32.33-8.337c-1.22-1.017-4.27-8.743-8.947-22.774-11.997-37.007-28.467-65.474-49.207-84.994-20.537-19.317-52.664-30.704-91.501-32.127h-19.52c-40.464-1.423-76.454 17.284-109.395 55.511l-16.267 28.060-7.93 22.774c-16.064 23.384-3.66 167.346 108.581 179.749l0.813 26.434 168.362 103.701 26.23 7.32 22.57-10.98 18.097-14.437c13.624-10.777 29.89-8.54 49.207 6.913l19.927 15.86c33.55 26.23 191.746-94.551 223.263-118.952l3.253-25.62c81.131-25.62 119.765-77.878 115.902-156.772-2.033-43.107-41.684-137.658-169.379-122.205zM369.461 610.669l28.060 0.813c4.27 0.203 9.15-3.863 14.64-12.2l9.353-16.47c9.557-16.47 16.267-19.317 20.334-8.54 2.237 6.1-3.457 17.284-17.284 33.754-8.337 9.963-15.86 16.064-22.57 18.3-7.727 2.643-12.403 3.050-14.437 1.423l-5.287-4.473-6.507-3.050-6.303-2.847v-6.71zM590.081 572.848l3.253 0.813 5.693 8.337c1.22 1.83 25.214 20.537 32.127 22.367v4.88c0 1.83-2.237 3.457-6.507 4.88-15.657 5.287-45.751-29.89-35.584-40.261l1.017-1.017zM531.114 569.595c0 3.457-31.11 14.030-44.734-0.407-11.387-11.997-12.607-37.414-4.677-35.99l4.88 0.813c0.61 0.203 2.44 3.66 5.49 10.573l4.067 11.387c1.017 2.847 12.607 12.81 24.197 4.88 2.643-1.83 3.863-3.253 4.067-4.473h3.253c1.627-0.203 3.050 0.813 3.253 2.44v0.813l0.203 9.963zM379.628 505.341c8.337-0.203 11.59 3.66 9.963 11.59-1.423 6.71-12.81 13.827-34.364 21.35-19.927 6.913-86.418 14.64-64.661-9.353 1.423-1.627 5.083-1.627 10.777-0.203 13.624 3.863 33.55-0.813 59.781-14.030l18.504-9.353zM525.827 526.488h-3.253l-5.49-3.457-6.1-2.237c-3.253-1.22-4.88-2.643-4.88-4.067v-4.88c0-9.557 32.33-2.643 36.194 14.844 3.253 14.234-18.504 8.947-16.47-0.203zM656.775 493.141l15.25-3.457 28.67 15.047 32.534 9.15v8.337l-27.654-4.473-14.844-5.897-33.957-18.707zM261.083 259.304c74.014-8.337 141.522 49.207 144.775 102.481l4.88 26.23c0 3.66-8.337 47.784-29.484 70.964-40.464 43.921-88.248 57.951-143.352 42.091-49.004-14.030-89.264-71.981-87.028-122.815 2.033-45.751 40.871-111.021 110.208-118.952z" />
<glyph unicode="&#xe980;" d="M3.66 82.605c0-78.894 63.847-142.945 142.742-142.945h730.993c78.894 0 142.945 63.847 142.945 142.945v730.79c0 78.894-64.051 142.945-142.945 142.945h-730.79c-78.894 0-142.945-63.847-142.945-142.945v-730.79z" />
<glyph unicode="&#xe981;" d="M877.395-64h-730.993c-80.724 0-146.402 65.678-146.402 146.605v730.79c0 80.928 65.678 146.605 146.605 146.605h730.79c80.928 0 146.605-65.678 146.605-146.605v-730.79c0-80.928-65.678-146.605-146.605-146.605zM146.605 952.68c-76.861 0-139.285-62.424-139.285-139.285v-730.79c0-76.861 62.424-139.285 139.082-139.285h730.993c76.861 0 139.285 62.424 139.285 139.285v730.79c0 76.861-62.424 139.285-139.285 139.285h-730.79z" />
<glyph unicode="&#xe982;" d="M51.241 82.605c0-52.664 42.497-95.161 94.958-95.365h730.993c52.664 0 95.365 42.497 95.365 95.161v730.993c0 52.664-42.701 95.365-95.365 95.365h-730.586c-52.664 0-95.365-42.497-95.365-95.161v-730.993zM185.036 336.369l74.624 69.948-30.5-140.505-44.124 70.558zM428.429 245.681h-99.635l-58.561 178.732-92.721-88.654 55.511-89.875h-112.648l61.814 210.453h179.749l66.491-210.656zM273.487 529.334l85.808-65.474-173.446-0.203 87.638 65.678zM464.826 644.423l74.624 69.948-30.5-140.505-44.124 70.558zM709.846 553.531h-99.635l-58.561 178.529-92.721-88.451 55.511-89.875h-112.648l61.814 210.453h179.749l66.491-210.656zM554.701 837.388l85.808-65.474-173.649-0.407 87.841 65.881zM544.737 235.514l89.061 83.164-36.397-167.142-52.664 83.978zM835.508 129.779h-118.545l-69.744 212.689-110.411-105.328 66.084-106.955h-134.202l73.608 250.51h214.113l79.098-250.917zM651.082 465.080l102.278-77.878-206.589-0.407 104.311 78.284z" />
<glyph unicode="&#xe983;" d="M3.66 82.605c0-78.894 63.847-142.945 142.742-142.945h730.993c78.894 0 142.945 63.847 142.945 142.945v730.79c0 78.894-64.051 142.945-142.945 142.945h-730.79c-78.894 0-142.945-63.847-142.945-142.945v-730.79z" />
<glyph unicode="&#xe984;" d="M877.395-64h-730.993c-80.724 0-146.402 65.678-146.402 146.605v730.79c0 80.928 65.678 146.605 146.605 146.605h730.79c80.928 0 146.605-65.678 146.605-146.605v-730.79c0-80.928-65.678-146.605-146.605-146.605zM146.605 952.68c-76.861 0-139.285-62.424-139.285-139.285v-730.79c0-76.861 62.424-139.285 139.082-139.285h730.993c76.861 0 139.285 62.424 139.285 139.285v730.79c0 76.861-62.424 139.285-139.285 139.285h-730.79z" />
<glyph unicode="&#xe985;" d="M163.075 908.759h698.052c61.611 0 111.631-50.021 111.631-111.631v-698.052c0-61.611-50.021-111.631-111.631-111.631h-698.052c-61.611 0-111.631 50.021-111.631 111.631v698.052c-0.203 61.611 49.817 111.631 111.631 111.631z" />
<glyph unicode="&#xe986;" d="M761.697 68.575h-319.034l-67.508 380.442h55.307l18.3-103.905c6.303-5.287 16.877-13.624 23.994-13.42 15.86-0.203 25.824 6.507 37.414 14.234s25.010 16.674 43.717 16.267c25.824 0.407 41.887-11.387 54.901-21.147 9.963-7.523 17.894-13.42 28.67-13.624 14.64 0.203 23.384 5.693 34.567 12.607 13.42 8.337 28.67 17.894 55.307 17.894 10.777-0.407 21.35-2.847 30.907-7.523l18.097 98.415h55.104zM334.284 594.199h-141.319v100.245h175.886v51.241h-20.537c-26.637 0-48.394 18.097-49.004 40.871 0.813 22.367 22.367 40.464 49.004 40.871h108.378c26.23-0.407 47.987-18.707 46.971-40.871 0.813-22.774-20.74-41.074-46.971-40.871h-20.537v-51.241h75.641c95.771-0.61 173.242-78.081 173.852-173.852v-67.508h-100.041v65.474c0 41.481-33.55 75.031-75.641 75.641h-38.227c-8.133-30.704-35.787-46.361-68.524-46.361-33.55 0-61.407 15.657-68.931 46.361z" />
<glyph unicode="&#xe987;" d="M685.039 318.475c-12.2-7.523-25.824-16.064-47.987-16.47-19.317 0.407-32.33 9.963-43.717 18.504s-21.96 16.267-39.651 16.064c-11.183 0.203-19.114-5.083-29.484-11.997-12.607-8.337-28.060-18.707-51.444-18.504-6.303 0-12.403 1.627-17.894 4.27l34.77-196.829h224.89l38.634 210.859c-8.337 4.88-17.69 8.133-26.23 8.337-19.317-0.203-29.687-6.71-41.887-14.234z" />
<glyph unicode="&#xe988;" d="M3.66 82.605c0-78.894 63.847-142.945 142.742-142.945h730.993c78.894 0 142.945 63.847 142.945 142.945v730.79c0 78.894-64.051 142.945-142.945 142.945h-730.79c-78.894 0-142.945-63.847-142.945-142.945v-730.79z" />
<glyph unicode="&#xe989;" d="M877.395-64h-730.993c-80.724 0-146.402 65.678-146.402 146.605v730.79c0 80.928 65.678 146.605 146.605 146.605h730.79c80.928 0 146.605-65.678 146.605-146.605v-730.79c0-80.928-65.678-146.605-146.605-146.605zM146.605 952.68c-76.861 0-139.285-62.424-139.285-139.285v-730.79c0-76.861 62.424-139.285 139.082-139.285h730.993c76.861 0 139.285 62.424 139.285 139.285v730.79c0 76.861-62.424 139.285-139.285 139.285h-730.79z" />
<glyph unicode="&#xe98a;" d="M51.241 82.605c0-52.664 42.497-95.161 95.161-95.365h730.993c52.664 0 95.365 42.701 95.365 95.161v730.993c0 52.664-42.701 95.365-95.365 95.365h-730.79c-52.664 0-95.365-42.701-95.365-95.161v-730.993zM312.731 478.704c-53.884-37.617-86.011-99.025-86.418-164.702 0-106.955 89.875-196.829 197.846-196.829 94.958 0 176.292 68.321 193.779 159.822l28.264-71.168c-41.481-84.994-127.492-138.878-222.043-139.082-135.828 0-247.663 112.038-247.663 248.070 0 90.078 52.867 176.699 131.558 218.79l4.677-54.901zM354.008 383.746l-30.094 354.618c-4.677 8.947-7.117 18.707-7.117 28.874 0 35.787 27.247 62.017 62.627 62.017 31.924 0 60.391-28.060 60.391-61.814 0-31.72-25.214-58.967-56.527-61.001l13.827-152.299h178.936v-55.917h-174.869l4.88-57.951h245.020l86.824-226.516 89.061 33.957 20.537-51.851-141.929-55.511-93.738 243.393h-257.83z" />
<glyph unicode="&#xe98b;" d="M3.66 82.605c0-0.030 0-0.066 0-0.102 0-78.855 63.895-142.786 142.736-142.843h730.999c0.018 0 0.040 0 0.061 0 78.913 0 142.884 63.971 142.884 142.884 0 0.021 0 0.043 0 0.064v-0.003 730.79c-0.035 78.932-64.013 142.91-142.942 142.945h-730.793c-0.018 0-0.040 0-0.061 0-78.913 0-142.884-63.971-142.884-142.884 0-0.021 0-0.043 0-0.064v0.003z" />
<glyph unicode="&#xe98c;" d="M877.395-64h-730.993c-80.88 0.116-146.402 65.709-146.402 146.605 0 0 0 0 0 0v0 730.79c0.035 80.954 65.651 146.57 146.602 146.605h730.793c80.954-0.035 146.57-65.651 146.605-146.602v-730.794c-0.035-80.954-65.651-146.57-146.602-146.605h-0.004zM146.605 952.68c-76.906-0.046-139.239-62.379-139.285-139.281v-730.795c0.023-76.844 62.253-139.146 139.068-139.285h731.006c76.906 0.046 139.239 62.379 139.285 139.281v730.795c-0.046 76.906-62.379 139.239-139.281 139.285h-0.005z" />
<glyph unicode="&#xe98d;" d="M51.058 82.565c0-0.036 0-0.079 0-0.122 0-52.579 42.623-95.202 95.202-95.202 0.050 0 0.1 0 0.15 0h731.168c0.024 0 0.053 0 0.081 0 52.623 0 95.283 42.66 95.283 95.283 0 0.014 0 0.029 0 0.043v-0.002 730.871c-0.023 52.651-42.71 95.324-95.365 95.324h-731.176c-0.024 0-0.053 0-0.081 0-52.623 0-95.283-42.66-95.283-95.283 0-0.014 0-0.029 0-0.043v0.002z" />
<glyph unicode="&#xe98e;" d="M315.008 804.346c48.356-0.104 87.515-39.328 87.515-87.699 0-48.435-39.264-87.699-87.699-87.699-48.342 0-87.548 39.113-87.698 87.42v0.014c0.104 48.51 39.378 87.813 87.867 87.963h0.014zM609.113 507.557c32.711-0.046 59.211-26.575 59.211-59.293 0-32.746-26.546-59.293-59.293-59.293s-59.293 26.546-59.293 59.293c0 0.021 0 0.043 0 0.064v-0.003c0.035 32.72 26.568 59.232 59.293 59.232 0.029 0 0.057 0 0.086 0h-0.004zM526.335 96.249h148.435v183.917c0.386 29.382 3.924 34.709 46.767 33.428h125.011v59.232h-273.406c-25.315-2.399-47.174-16.897-46.767-45.893z" />
<glyph unicode="&#xe98f;" d="M178.692 92.304h245.284v388.189c-2.42 20.578 2.786 34.689 34.201 35.97h57.361c29.382-0.895 36.6 12.058 39.020 31.009v145.934h22.265l-0.386-8.032 18.951 0.386v69.399h-20.984v-9.78h-22.245v19.846h-75.804v-27.471h-60.147v-38.634h60.147v-55.267c-1.118-29.87-9.658-39.915-41.582-39.549h-180.603c-43.107-0.752-74.624-23.75-75.397-62.017z" />
</font>
</defs>
</svg>
