<svg xmlns="http://www.w3.org/2000/svg" width="260" height="40" viewBox="0 0 260 40"><g fill="none" fill-rule="evenodd"><g fill-rule="nonzero"><path fill="#0097A9" d="M207.389 22.332c-19.937 2.345-35.314 1.089-45.706-.754-6.787-1.172-13.256-3.768-19.3-6.28-6.788-2.847-13.044-6.448-20.043-8.96-4.242-1.507-8.696-2.68-13.362-3.098-9.014-.837-18.028.586-26.406 3.182-4.454 1.34-8.696 3.098-12.938 4.857 7-1.926 13.999-3.768 21.528-3.266 6.999.419 14.21 1.842 20.679 3.936 2.863.92 5.62 2.01 8.378 3.182l6.468 3.35c20.043 11.22 35.95 13.983 51.645 11.89 9.014-1.256 17.922-3.182 26.936-4.773 9.226-1.591 18.876-2.764 28.314-2.261 9.014.502 17.074 3.266 25.77 5.024-8.908-2.68-26.3-9.043-51.963-6.029"/><path fill="#244C5A" d="M142.16 34.4c-10.97-2.063-19.643-6.848-29.15-11.304-9.718-4.62-19.749-8.993-31.451-9.158C62.96 13.691 50.63 20.786 40.6 25.241 19.285 34.812 16.882 35.39 1 36.627c21.942.578 30.405-4.125 40.854-6.353 12.33-2.64 24.659-5.858 37.615-5.445 8.672.247 17.554 1.98 25.808 4.043 7.523 1.897 14.42 4.867 21.942 6.765 27.376 6.848 50.676-1.98 50.676-1.98-13.27 3.3-25.39 2.723-35.734.742"/><path fill="#F2A900" d="M178.857 15.294a193.965 193.965 0 0 1-16.123-2.938c7.632 2.486 15.455 4.896 23.469 6.403 8.3 1.582 17.554 2.41 26.14 1.356 12.116-1.507 21.275-5.424 31.674-7.458-8.395.377-25.282 2.486-35.585 3.315-10.018.828-19.558.602-29.575-.678"/></g><path d="M0 0h260v40H0z"/></g></svg>