<svg xmlns="http://www.w3.org/2000/svg" width="303" height="50" viewBox="0 0 303 50"><g fill="none"><path fill="#244C5A" stroke="#244C5A" d="M84.516 7.27c-6.702 2.14-14.717 5.12-20.95 6.756l-.58 7.632a227.7 227.7 0 0 0 22.027-4.135 122.116 122.116 0 0 1 21.82-3.522c8.043-.492 15.353.854 22.87 2.753 6.91 1.743 14.524 3.486 21.668 4.688a88.81 88.81 0 0 0 24.362.517 115.674 115.674 0 0 1-22.897-4.171c-7.186-2.248-13.709-5.565-20.604-8.306-8.064-3.256-16.77-5.137-25.648-5.541-7.543-.25-15.062.885-22.068 3.33zM13.654 21.694a110.47 110.47 0 0 0 27.886-2.127c7.49-1.599 14.247-3.294 22.11-5.541l-.58 7.632c-4.727.721-11.056 1.575-14.441 1.911a132.161 132.161 0 0 1-22.856.613C16.86 23.774 8.596 22.175.028 20.516c4.478.361 9.038 1.022 13.626 1.226v-.048z"/><path fill="#512A44" d="M199.463 2.704a103.073 103.073 0 0 1 24.367-2.7s-18.84 8.56-26.557 10.742a77.877 77.877 0 0 1-22.043 3.16 91.798 91.798 0 0 1-20.715-2.968c-6.64-1.646-13.279-3.738-19.819-5.771 0 0 16.748 4.881 30.176 4.866 13.113.06 21.76-4.57 34.591-7.329z"/><path fill="#DC4405" d="M230.266 10.965a259.392 259.392 0 0 0-40.91 4.444c-19.092 3.985-42.241-5.17-42.241-5.17s21.237 12.415 44.137 9.985c13.444-1.365 26.59-4.485 39.014-9.26z"/><path fill="#65A2AD" d="M190.146 43.839c-22.333 4.662-49.411-6.048-49.411-6.048s24.841 14.522 51.628 11.68C208.09 47.874 223.466 44.225 238 38.64a303.42 303.42 0 0 0-47.854 5.199z"/><path fill="#0097A9" stroke="#0097A9" d="M200.868 36.867c8.101-2.603 17.79-6.23 25.324-8.22l.701-9.288a273.766 273.766 0 0 0-26.627 5.032 146.737 146.737 0 0 1-26.376 4.285c-9.723.6-18.56-1.038-27.647-3.35-8.352-2.12-17.556-4.241-26.193-5.704a106.657 106.657 0 0 0-29.45-.629c9.418.76 18.705 2.462 27.68 5.076 8.686 2.735 16.57 6.772 24.906 10.107 9.748 3.962 20.272 6.251 31.004 6.743 9.119.303 18.208-1.077 26.678-4.052zm85.661-17.552a132.682 132.682 0 0 0-33.71 2.589c-9.054 1.945-17.222 4.008-26.727 6.743l.701-9.288c5.713-.878 13.364-1.916 17.457-2.326a158.715 158.715 0 0 1 27.63-.746c10.774.498 20.763 2.443 31.12 4.462-5.412-.44-10.925-1.244-16.47-1.492v.058z"/><path fill="#F2A900" d="M79.04 39.27a102.729 102.729 0 0 1-24.44 2.726s18.896-8.643 26.637-10.845a77.631 77.631 0 0 1 22.108-3.191 91.506 91.506 0 0 1 20.777 2.996c6.66 1.663 13.319 3.775 19.878 5.827 0 0-16.798-4.928-30.266-4.913-13.152-.06-21.826 4.614-34.695 7.4z"/><path fill="#7A9A01" d="M48 30.867a258.517 258.517 0 0 0 41.033-4.487C108.18 22.356 131.4 31.6 131.4 31.6s-21.3-12.535-44.269-10.082c-13.484 1.378-26.67 4.528-39.131 9.35z"/></g></svg>