<svg xmlns="http://www.w3.org/2000/svg" width="185" height="144"><path fill="#00818F" fill-opacity=".2" fill-rule="evenodd" d="M0 93C0 55.5 20.445 22 51.361 0l27.426 22.5C62.83 31 44.38 52 39.892 70c1.995-1 5.984-1.5 9.973-1.5 18.949 0 33.909 14.5 33.909 36S65.822 144 44.38 144C20.943 144 0 125.5 0 93zm101.725 0c0-37.5 20.445-71 51.361-93l27.426 22.5C164.555 31 145.606 52 141.617 70c1.496-1 5.984-1.5 9.973-1.5 18.95 0 33.41 14.5 33.41 36S167.547 144 146.105 144c-23.437 0-44.38-18.5-44.38-51z"/></svg>