<svg xmlns="http://www.w3.org/2000/svg" width="200" height="150" viewBox="0 0 200 150">
  <g fill="none" fill-rule="evenodd" stroke-linecap="round" stroke-linejoin="round" stroke-width="2" transform="translate(61 36)">
    <path stroke="#595A59" d="M79 43.569837C77.6029431 42.2346963 74.7363372 42.3823259 74.2246125 40.1626815 73.5477449 34.7109778 76.0548994 31.5364444 77.6364004 27.8932444 69.6323827 29.7661333 63.3218195 32.8492593 63.3282528 23.8041481 58.7325917 29.4262222 53.7920614 35.0478815 51.7515943 34.0273185 48.8532482 32.3230963 54.5328414 17.8533333 55.1539454 10.1751111 52.3499656 11.4557481 46.9796395 14.2642074 46.9796395 14.2642074 46.9796395 14.2642074 42.0983025 4.71182222 39.5143691 0 36.9012682 4.71182222 32.023364 14.2642074 32.023364 14.2642074 32.023364 14.2642074 26.6496051 11.4557481 23.8490566 10.1751111 24.4667293 17.8546222 30.1467518 32.3243852 27.2479765 34.0273185 25.2062229 35.0496 20.2669805 29.4262222 15.6747492 23.8041481 15.6747492 32.8492593 9.36761728 29.766563 1.36660311 27.8932444 2.94510062 31.5347259 5.45225506 34.7092741 4.76895275 40.1626815 4.26537843 42.3823259 1.39705687 42.2346963 0 43.569837 9.28568981 52.8574222 25.3795147 59.7554222 17.7135007 67.4233333 25.6914434 67.4233333 40.2146325 67.4233333 61.283068 67.4233333 53.6243459 59.7554222 69.7177415 52.8574222 79 43.569837zM39.490566 67.9876543L39.490566 77.8641975"></path>
    <path stroke="#0097A9" d="M12.5 44.5L20.5 51.5M31.5 18.5L34 27"></path>
  </g>
</svg>