<svg width="134" height="100" xmlns="http://www.w3.org/2000/svg"><path d="M0 63.037C0 37.822 13.486 15.76 35.867 0l20.947 16.905c-9.182 4.012-22.381 16.62-26.112 27.508 1.435-.573 4.304-1.147 7.46-1.147 13.774 0 24.964 10.602 24.964 26.648C63.126 86.533 49.353 100 33.285 100 15.782 100 0 86.533 0 63.037zm70.874 0C70.874 37.822 84.36 15.76 106.74 0l20.946 16.905c-9.182 4.012-22.38 16.62-26.111 27.508 1.435-.573 4.304-1.147 7.46-1.147C122.81 43.266 134 53.868 134 69.914 134 86.533 120.227 100 104.158 100c-17.503 0-33.284-13.467-33.284-36.963z" fill="#FBEBAD" fill-rule="evenodd" opacity=".5"/></svg>